<?xml version="1.0" encoding="UTF-8" standalone="no"?>
<!-- Created with Inkscape (http://www.inkscape.org/) -->

<svg
   xmlns:dc="http://purl.org/dc/elements/1.1/"
   xmlns:cc="http://creativecommons.org/ns#"
   xmlns:rdf="http://www.w3.org/1999/02/22-rdf-syntax-ns#"
   xmlns:svg="http://www.w3.org/2000/svg"
   xmlns="http://www.w3.org/2000/svg"
   xmlns:sodipodi="http://sodipodi.sourceforge.net/DTD/sodipodi-0.dtd"
   xmlns:inkscape="http://www.inkscape.org/namespaces/inkscape"
   width="41.535763mm"
   height="8.3702965mm"
   viewBox="0 0 41.535763 8.3702965"
   version="1.1"
   id="svg8"
   sodipodi:docname="listmonk.svg"
   inkscape:version="0.92.3 (2405546, 2018-03-11)">
  <defs
     id="defs2" />
  <sodipodi:namedview
     id="base"
     pagecolor="#ffffff"
     bordercolor="#666666"
     borderopacity="1.0"
     inkscape:pageopacity="0.0"
     inkscape:pageshadow="2"
     inkscape:zoom="1"
     inkscape:cx="41.789813"
     inkscape:cy="42.352202"
     inkscape:document-units="mm"
     inkscape:current-layer="layer1"
     showgrid="false"
     inkscape:window-width="1853"
     inkscape:window-height="1025"
     inkscape:window-x="67"
     inkscape:window-y="27"
     inkscape:window-maximized="1"
     fit-margin-top="0"
     fit-margin-left="0"
     fit-margin-right="0"
     fit-margin-bottom="0" />
  <metadata
     id="metadata5">
    <rdf:RDF>
      <cc:Work
         rdf:about="">
        <dc:format>image/svg+xml</dc:format>
        <dc:type
           rdf:resource="http://purl.org/dc/dcmitype/StillImage" />
        <dc:title></dc:title>
      </cc:Work>
    </rdf:RDF>
  </metadata>
  <g
     inkscape:label="Layer 1"
     inkscape:groupmode="layer"
     id="layer1"
     transform="translate(-88.728827,-97.568868)">
    <g
       aria-label="listmonk"
       style="font-style:normal;font-weight:normal;font-size:8.44721699px;line-height:1.25;font-family:sans-serif;letter-spacing:0px;word-spacing:0px;fill:#000000;fill-opacity:1;stroke:none;stroke-width:0.21118042"
       id="text817">
      <path
         d="m 98.79092,104.90855 h 0.76025 v -6.3861 h -0.76025 z"
         style="font-style:normal;font-variant:normal;font-weight:600;font-stretch:normal;font-family:'Avenir LT Std';-inkscape-font-specification:'Avenir LT Std Semi-Bold';fill:#000000;stroke-width:0.21118042"
         id="path944" />
      <path
         d="m 100.82023,104.90855 h 0.76025 v -4.00398 h -0.76025 z m -0.17739,-5.440011 c 0,0.3041 0.25342,0.557521 0.55752,0.557521 0.3041,0 0.55751,-0.253421 0.55751,-0.557521 0,-0.3041 -0.25341,-0.557517 -0.55751,-0.557517 -0.3041,0 -0.55752,0.253417 -0.55752,0.557517 z"
         style="font-style:normal;font-variant:normal;font-weight:600;font-stretch:normal;font-family:'Avenir LT Std';-inkscape-font-specification:'Avenir LT Std Semi-Bold';fill:#000000;stroke-width:0.21118042"
         id="path946" />
      <path
         d="m 105.51042,101.46208 c -0.28721,-0.47304 -0.83628,-0.65888 -1.36845,-0.65888 -0.7518,0 -1.5205,0.39702 -1.5205,1.23329 0,0.7687 0.57441,0.97988 1.22485,1.14038 0.32944,0.076 0.96298,0.16049 0.96298,0.61664 0,0.34634 -0.42236,0.50684 -0.81093,0.50684 -0.43926,0 -0.72646,-0.22808 -0.97143,-0.47305 l -0.57441,0.47305 c 0.39701,0.54062 0.88695,0.70956 1.54584,0.70956 0.79403,0 1.62186,-0.35478 1.62186,-1.25863 0,-0.7518 -0.50683,-1.00522 -1.16571,-1.16572 -0.33789,-0.076 -1.02212,-0.1436 -1.02212,-0.62509 0,-0.28721 0.31255,-0.4477 0.66733,-0.4477 0.38013,0 0.64199,0.17739 0.81938,0.39701 z"
         style="font-style:normal;font-variant:normal;font-weight:600;font-stretch:normal;font-family:'Avenir LT Std';-inkscape-font-specification:'Avenir LT Std Semi-Bold';fill:#000000;stroke-width:0.21118042"
         id="path948" />
      <path
         d="m 108.68116,100.90457 h -1.08969 v -1.123484 h -0.76025 v 1.123484 h -0.87851 v 0.65888 h 0.87851 v 2.08646 c 0,0.64199 0.0169,1.36 1.19106,1.36 0.15205,0 0.50683,-0.0338 0.68422,-0.13515 v -0.69267 c -0.15205,0.0929 -0.36323,0.11826 -0.54062,0.11826 -0.57441,0 -0.57441,-0.47305 -0.57441,-0.92075 v -1.81615 h 1.08969 z"
         style="font-style:normal;font-variant:normal;font-weight:600;font-stretch:normal;font-family:'Avenir LT Std';-inkscape-font-specification:'Avenir LT Std Semi-Bold';fill:#000000;stroke-width:0.21118042"
         id="path950" />
      <path
         d="m 109.65378,104.90855 h 0.76025 v -2.07802 c 0,-0.90385 0.48994,-1.31776 1.039,-1.31776 0.73491,0 0.84473,0.54062 0.84473,1.30087 v 2.09491 h 0.76025 v -2.18783 c 0,-0.70957 0.2872,-1.20795 1.02211,-1.20795 0.73491,0 0.86162,0.55751 0.86162,1.16571 v 2.23007 h 0.76024 v -2.33144 c 0,-0.8954 -0.2872,-1.77391 -1.52049,-1.77391 -0.4815,0 -1.00522,0.25342 -1.26709,0.74335 -0.25341,-0.48993 -0.65888,-0.74335 -1.25018,-0.74335 -0.71802,0 -1.20796,0.48994 -1.28398,0.72646 h -0.0169 v -0.62509 h -0.70956 z"
         style="font-style:normal;font-variant:normal;font-weight:600;font-stretch:normal;font-family:'Avenir LT Std';-inkscape-font-specification:'Avenir LT Std Semi-Bold';fill:#000000;stroke-width:0.21118042"
         id="path952" />
      <path
         d="m 117.46376,102.90656 c 0,-0.81094 0.50683,-1.39379 1.31776,-1.39379 0.81094,0 1.31777,0.58285 1.31777,1.39379 0,0.81093 -0.50683,1.39379 -1.31777,1.39379 -0.81093,0 -1.31776,-0.58286 -1.31776,-1.39379 z m -0.81094,0 c 0,1.16571 0.93765,2.10335 2.1287,2.10335 1.19106,0 2.1287,-0.93764 2.1287,-2.10335 0,-1.16572 -0.93764,-2.10336 -2.1287,-2.10336 -1.19105,0 -2.1287,0.93764 -2.1287,2.10336 z"
         style="font-style:normal;font-variant:normal;font-weight:600;font-stretch:normal;font-family:'Avenir LT Std';-inkscape-font-specification:'Avenir LT Std Semi-Bold';fill:#000000;stroke-width:0.21118042"
         id="path954" />
      <path
         d="m 121.86265,104.90855 h 0.76024 v -2.06112 c 0,-0.9292 0.4815,-1.33466 1.11504,-1.33466 0.48149,0 0.9123,0.27875 0.9123,1.03056 v 2.36522 h 0.76025 v -2.5764 c 0,-1.06435 -0.67578,-1.52895 -1.45292,-1.52895 -0.61665,0 -1.12348,0.29565 -1.31777,0.71801 h -0.0169 v -0.61664 h -0.76024 z"
         style="font-style:normal;font-variant:normal;font-weight:600;font-stretch:normal;font-family:'Avenir LT Std';-inkscape-font-specification:'Avenir LT Std Semi-Bold';fill:#000000;stroke-width:0.21118042"
         id="path956" />
      <path
         d="m 126.56471,104.90855 h 0.76025 v -2.07802 l 1.85839,2.07802 h 1.08124 l -2.02733,-2.17939 1.86683,-1.81615 h -1.0559 l -1.72323,1.73168 v -4.12224 h -0.76025 z"
         style="font-style:normal;font-variant:normal;font-weight:600;font-stretch:normal;font-family:'Avenir LT Std';-inkscape-font-specification:'Avenir LT Std Semi-Bold';fill:#000000;stroke-width:0.21118042"
         id="path958" />
    </g>
    <circle
       style="fill:none;fill-opacity:1;stroke:#7f2aff;stroke-width:1.05596864;stroke-miterlimit:4;stroke-dasharray:none;stroke-opacity:1"
       id="path874"
       cx="92.280685"
       cy="102.38731"
       r="3.0238743" />
    <path
       style="fill:#7f2aff;fill-opacity:1;stroke:none;stroke-width:1.15863311;stroke-miterlimit:4;stroke-dasharray:none;stroke-opacity:1"
       d="m 92.280686,99.698318 a 3.0238741,3.6404374 0 0 0 -3.023758,3.640282 3.0238741,3.6404374 0 0 0 0.0697,0.75725 3.0238741,3.6404374 0 0 1 2.954053,-2.87212 3.0238741,3.6404374 0 0 1 2.954051,2.88305 3.0238741,3.6404374 0 0 0 0.0697,-0.76818 3.0238741,3.6404374 0 0 0 -3.023756,-3.640282 z"
       id="circle878"
       inkscape:connector-curvature="0" />
    <path
       style="fill:#7f2aff;fill-opacity:1;stroke:none;stroke-width:1.05596864;stroke-miterlimit:4;stroke-dasharray:none;stroke-opacity:1"
       id="path873"
       sodipodi:type="arc"
       sodipodi:cx="92.280685"
       sodipodi:cy="-99.267464"
       sodipodi:rx="1.6985958"
       sodipodi:ry="1.6985958"
       sodipodi:start="0"
       sodipodi:end="3.1415927"
       d="m 93.979281,-99.267464 a 1.6985958,1.6985958 0 0 1 -0.849298,1.471027 1.6985958,1.6985958 0 0 1 -1.698596,0 1.6985958,1.6985958 0 0 1 -0.849297,-1.471027 l 1.698595,0 z"
       transform="scale(1,-1)" />
  </g>
</svg>
