<svg xmlns="http://www.w3.org/2000/svg" width="183" height="40" aria-label="Runs faster on LumaDock" viewBox="0 0 137.25 30"><defs><radialGradient id="a" cx="0" cy="0" r="136" gradientUnits="userSpaceOnUse"><stop offset="0" stop-color="#0B4FAE"/><stop offset="1" stop-color="#CC12B1"/></radialGradient><linearGradient id="b" x1="0" x2="137.25" y1="30" y2="0" gradientUnits="userSpaceOnUse"><stop offset="0" stop-color="#1E105A" stop-opacity=".24"/><stop offset=".62" stop-color="#6B2BB7" stop-opacity=".06"/><stop offset="1" stop-color="#FF3ACD" stop-opacity=".14"/></linearGradient></defs><path fill="url(#a)" d="M0 0h137.25v30H0z"/><path fill="url(#b)" d="M0 0h137.25v30H0z"/><g fill="#fff"><path d="m11.922 6.43 1.397 1.397-6.617 6.617a.356.356 0 0 0 0 .532l6.617 6.617-1.397 1.397-7.328-7.328c-.417-.417-.417-1.487 0-1.904zM16.717 9.88l3.716 3.716c.642.641.642 1.514 0 2.16l-3.716 3.715-1.397-1.397 3.274-3.274c.114-.114.114-.207 0-.318l-3.274-3.274z"/></g><path fill="#fff" d="M31.646 14.162q.14.188.343.469.217.283.438.625.233.345.453.719.218.377.375.719h-.922a25 25 0 0 0-.375-.672 9 9 0 0 0-.422-.641 13 13 0 0 0-.406-.578 10 10 0 0 0-.375-.484 1.5 1.5 0 0 1-.234.015h-.985v2.36h-.843v-5.938q.357-.092.796-.125.434-.03.797-.031c.852 0 1.5.164 1.938.484.445.313.672.79.672 1.422q0 .61-.328 1.031-.315.424-.922.625m-1.282-2.828c-.367 0-.64.012-.828.031v2.266h.594q.435.002.781-.031.36-.045.594-.172a.87.87 0 0 0 .36-.344q.14-.215.14-.578 0-.34-.14-.562a.9.9 0 0 0-.344-.36 1.4 1.4 0 0 0-.516-.187 3.3 3.3 0 0 0-.64-.063M37.718 16.569q-.283.065-.735.14-.455.077-1.062.078-.517 0-.875-.14a1.4 1.4 0 0 1-.578-.438 1.7 1.7 0 0 1-.313-.656 3.5 3.5 0 0 1-.093-.844v-2.547h.812v2.375q-.001.832.25 1.188.264.345.89.344h.266q.139-.014.266-.016.124-.013.219-.031a.5.5 0 0 0 .14-.032v-3.828h.813ZM39.123 12.303q.263-.075.72-.156.468-.077 1.077-.078.528.002.891.156.358.157.562.437.218.27.313.657.093.376.094.828v2.547h-.813v-2.375q-.002-.404-.062-.704a1.5 1.5 0 0 0-.188-.484.7.7 0 0 0-.344-.266 1.7 1.7 0 0 0-.546-.078c-.086 0-.172.008-.266.016a3 3 0 0 0-.266.016q-.129.018-.234.03a1 1 0 0 1-.14.016v3.829h-.798ZM45.17 16.115q.499.002.734-.125a.46.46 0 0 0 .234-.421.56.56 0 0 0-.234-.47c-.156-.124-.414-.257-.766-.405a6 6 0 0 1-.515-.204 1.8 1.8 0 0 1-.406-.25 1.2 1.2 0 0 1-.282-.359 1.3 1.3 0 0 1-.093-.516q-.001-.608.437-.953.45-.359 1.219-.36.188.002.375.032.186.018.344.047.168.034.296.063.14.034.204.062l-.141.688a3 3 0 0 0-.422-.125 2.4 2.4 0 0 0-.656-.079q-.346 0-.594.141a.42.42 0 0 0-.25.406.7.7 0 0 0 .047.266q.06.11.172.203.122.095.297.172.17.081.422.156.31.128.562.25.263.112.438.266.17.157.265.39c.07.149.11.325.11.532q0 .626-.47.953-.47.328-1.327.328c-.399 0-.711-.04-.938-.11a6 6 0 0 1-.469-.14l.157-.703c.093.031.238.086.437.156q.31.11.813.11M51.785 9.944q.341 0 .594.046.263.048.375.094l-.14.703a1.4 1.4 0 0 0-.313-.11 2 2 0 0 0-.454-.046q-.579.001-.812.313-.22.314-.219.828v.39h1.75v.688h-1.75v3.844h-.797v-4.938q0-.874.422-1.344.42-.468 1.344-.468M54.913 16.115c.187 0 .351-.003.5-.015a2.3 2.3 0 0 0 .375-.047v-1.36a2.8 2.8 0 0 0-1.141-.062.9.9 0 0 0-.375.11.9.9 0 0 0-.297.218.6.6 0 0 0-.11.375q0 .44.282.61c.187.117.441.171.766.171m-.079-4.062c.32 0 .594.043.813.125.227.086.41.203.547.36q.201.236.297.546.093.316.093.703v2.828l-.296.047a4 4 0 0 1-.422.047q-.235.03-.516.047-.268.03-.547.031-.375 0-.703-.078-.313-.075-.547-.25a1.24 1.24 0 0 1-.375-.437 1.6 1.6 0 0 1-.125-.672q0-.373.14-.64a1.1 1.1 0 0 1 .423-.438q.263-.17.61-.25a3.4 3.4 0 0 1 .733-.078q.123.001.25.015.123.02.235.031.124.018.219.047a1 1 0 0 0 .125.016v-.219a1.6 1.6 0 0 0-.047-.39 1.1 1.1 0 0 0-.157-.36.7.7 0 0 0-.312-.234 1.1 1.1 0 0 0-.5-.094 3.6 3.6 0 0 0-.703.063c-.2.03-.352.07-.453.109l-.094-.672q.152-.076.516-.14.375-.061.796-.063M58.975 16.115q.499.002.734-.125a.46.46 0 0 0 .234-.421.56.56 0 0 0-.234-.47q-.236-.184-.766-.405a6 6 0 0 1-.515-.204 1.8 1.8 0 0 1-.406-.25 1.2 1.2 0 0 1-.282-.359 1.3 1.3 0 0 1-.093-.516q-.001-.608.437-.953.45-.359 1.219-.36.188.002.375.032.186.018.344.047.168.034.296.063.14.034.204.062l-.141.688a3 3 0 0 0-.422-.125 2.4 2.4 0 0 0-.656-.079q-.346 0-.594.141a.42.42 0 0 0-.25.406.7.7 0 0 0 .047.266q.06.11.172.203.122.095.297.172.17.081.422.156.31.128.562.25.263.112.438.266.17.157.265.39c.07.149.11.325.11.532q0 .626-.47.953c-.312.219-.757.328-1.327.328-.399 0-.711-.04-.938-.11a6 6 0 0 1-.469-.14l.157-.703c.093.031.238.086.437.156q.31.11.813.11M62.562 12.162h1.72v.688h-1.72v2.078a3 3 0 0 0 .047.578q.062.221.156.344c.07.086.16.14.266.172q.154.046.36.047.373.002.593-.079.218-.075.313-.109l.156.672q-.127.047-.438.14-.3.094-.687.094a2.4 2.4 0 0 1-.766-.11q-.298-.123-.484-.358a1.5 1.5 0 0 1-.25-.579 3.4 3.4 0 0 1-.078-.796v-4.032l.812-.14ZM64.96 14.444q-.001-.609.173-1.047.187-.452.469-.75.28-.296.656-.438c.25-.101.504-.156.765-.156q.92.002 1.407.578.482.563.484 1.734v.281h-3.11q.06.705.407 1.079.357.361 1.125.36.421 0 .719-.063.294-.076.437-.157l.11.688q-.141.081-.516.156-.375.094-.844.094-.597-.001-1.031-.172a2 2 0 0 1-.703-.5 2.1 2.1 0 0 1-.406-.734q-.141-.437-.141-.953m3.11-.454q.014-.545-.265-.89-.283-.359-.782-.36c-.187 0-.355.04-.5.11a1.3 1.3 0 0 0-.359.281q-.141.174-.234.406a1.5 1.5 0 0 0-.094.453ZM71.767 12.069c.063 0 .133.007.219.015q.139.018.266.047.139.018.25.031c.07.012.125.028.156.047l-.125.703a2 2 0 0 0-.328-.093 2.8 2.8 0 0 0-1.016 0 2 2 0 0 0-.297.078v3.797h-.797v-4.329q.282-.107.703-.203.436-.093.97-.093M79.454 14.428c0 .367-.055.695-.157.984q-.157.423-.437.75-.284.315-.672.485a2.4 2.4 0 0 1-.86.156c-.304 0-.585-.055-.843-.156a2 2 0 0 1-.688-.485 2.4 2.4 0 0 1-.437-.75 2.9 2.9 0 0 1-.156-.984q-.002-.529.156-.969c.101-.289.25-.539.437-.75q.294-.31.688-.484.387-.17.844-.172.467.001.859.172.388.175.672.484.28.316.437.75c.102.293.157.617.157.969m-.844 0q-.002-.763-.344-1.203a1.12 1.12 0 0 0-.937-.453q-.598 0-.938.453-.344.44-.344 1.203 0 .768.344 1.219.34.454.938.453.591.001.937-.453.342-.451.344-1.22M80.608 12.303q.263-.075.719-.156.469-.077 1.078-.078.527.002.89.156.358.157.563.437.218.27.312.657.094.376.094.828v2.547h-.812v-2.375c0-.27-.024-.504-.063-.704a1.5 1.5 0 0 0-.187-.484.7.7 0 0 0-.344-.266 1.7 1.7 0 0 0-.547-.078c-.086 0-.172.008-.266.016a3 3 0 0 0-.265.016q-.129.018-.235.03a1 1 0 0 1-.14.016v3.829h-.797ZM91.644 15.522v1.172H87.63v-6.032h1.344v4.86ZM96.345 16.537a7 7 0 0 1-.86.172q-.517.094-1.093.094c-.387 0-.711-.055-.969-.156a1.5 1.5 0 0 1-.625-.438 1.8 1.8 0 0 1-.313-.687 3.7 3.7 0 0 1-.093-.86v-2.547h1.297v2.391q-.002.626.156.906.169.282.625.282.14.001.297-.016.152-.013.281-.031v-3.532h1.297ZM100.084 14.272q0-.639-.172-.891-.159-.265-.546-.266-.128.002-.25.016-.128.018-.25.031v3.532h-1.297v-4.422a7 7 0 0 1 .859-.172q.247-.046.5-.063.264-.03.516-.031.497.001.812.125.312.127.5.313.28-.2.64-.313.358-.124.673-.125c.363 0 .66.055.89.156q.358.157.563.438.215.27.297.656c.05.25.078.54.078.86v2.578H102.6v-2.422q-.001-.639-.172-.891-.159-.265-.547-.266c-.062 0-.156.024-.281.063q-.188.047-.313.125.06.205.079.422a9 9 0 0 1 .015.469v2.5h-1.297ZM106.826 15.787h.36q.17-.013.281-.031v-.984q-.082-.013-.234-.032c-.106-.007-.2-.015-.282-.015-.125 0-.246.008-.359.015a.9.9 0 0 0-.281.079.6.6 0 0 0-.188.171.5.5 0 0 0-.062.266q-.001.3.203.422.2.11.562.11m-.109-3.797q.576 0 .953.141c.258.086.469.211.625.375q.235.236.328.594.094.344.094.765v2.704q-.282.065-.781.14-.502.077-1.203.078-.44 0-.797-.078a1.8 1.8 0 0 1-.625-.25 1.23 1.23 0 0 1-.406-.469q-.141-.28-.141-.703-.002-.406.156-.687.169-.28.438-.438a1.9 1.9 0 0 1 .625-.234 3.3 3.3 0 0 1 1.156-.047q.2.017.328.047v-.125a.73.73 0 0 0-.203-.531q-.189-.201-.688-.203-.327 0-.656.046a2.5 2.5 0 0 0-.562.141l-.157-1.047q.106-.029.282-.062c.113-.032.234-.055.36-.078q.199-.03.42-.047.234-.031.454-.032M111.33 15.584q.106.017.235.016h.297c.675 0 1.175-.164 1.5-.5q.499-.515.5-1.422 0-.95-.47-1.438c-.312-.32-.808-.484-1.483-.484h-.297q-.141.002-.282.016Zm3.938-1.906c0 .523-.086.976-.25 1.36a2.64 2.64 0 0 1-.703.968 2.75 2.75 0 0 1-1.078.578 5.2 5.2 0 0 1-1.453.188q-.364-.001-.844-.032a8 8 0 0 1-.953-.125V10.74c.312-.062.632-.097.968-.109q.514-.03.875-.031.78 0 1.407.172.638.174 1.078.547.45.377.703.953c.164.386.25.855.25 1.406M120.593 14.397q-.002.533-.156.984a2.3 2.3 0 0 1-.453.781q-.299.315-.719.485a2.4 2.4 0 0 1-.922.172c-.336 0-.64-.059-.922-.172a2 2 0 0 1-.703-.485 2.4 2.4 0 0 1-.468-.781 3 3 0 0 1-.157-.984q-.002-.546.172-.985.17-.434.469-.75.293-.326.703-.5.42-.17.906-.172.497.001.907.172.42.174.718.5.295.316.453.75.171.44.172.985m-1.328 0q0-.592-.234-.938c-.156-.226-.387-.344-.688-.344a.8.8 0 0 0-.687.344q-.234.345-.235.938 0 .596.235.953.247.361.687.36.453.001.688-.36.234-.357.234-.953M121.38 14.412q-.001-.498.156-.937.17-.436.47-.766a2.3 2.3 0 0 1 .733-.515 2.4 2.4 0 0 1 1-.204q.358.001.657.079.31.065.61.171l-.267 1.047a2.5 2.5 0 0 0-.406-.125 2.3 2.3 0 0 0-.484-.047q-.58.001-.86.36-.28.346-.28.937c0 .407.085.727.265.953q.265.345.922.344a2.9 2.9 0 0 0 1-.187l.187 1.062a3 3 0 0 1-.578.156q-.33.078-.734.079-.628 0-1.078-.188a2.1 2.1 0 0 1-.75-.5 2.04 2.04 0 0 1-.438-.766 3.5 3.5 0 0 1-.125-.953M127.25 13.772q.187-.217.391-.438c.133-.144.266-.289.39-.437l.376-.438q.17-.201.281-.344h1.547q-.457.535-.906 1.016-.439.485-.953 1 .262.234.53.563.28.315.548.671.263.345.468.704.218.344.375.625h-1.484l-.328-.5a9 9 0 0 0-.375-.547 8 8 0 0 0-.422-.532 4 4 0 0 0-.437-.421v2h-1.297v-6.547l1.297-.203Zm0 0"/></svg>