<svg xmlns="http://www.w3.org/2000/svg" width="147" height="32" xmlns:v="https://vecta.io/nano"><defs><radialGradient cx="46.1106549%" cy="50%" fx="46.1106549%" fy="50%" r="48.5606635%" gradientTransform="translate(0.4611, 0.5), scale(0.2177, 1), rotate(90), scale(1, 0.9449), translate(-0.4611, -0.5)" id="A"><stop stop-color="#fff" offset="0%"/><stop stop-color="#f5f9f7" offset="100%"/></radialGradient><path id="B" d="M39.488 20.108c2.04 0 3.132-1.368 3.132-3.24 0-1.884-1.116-3.252-3.132-3.252s-3.132 1.368-3.132 3.252 1.092 3.24 3.132 3.24zm0-1.62c-.756 0-1.248-.48-1.248-1.62 0-1.128.48-1.632 1.248-1.632s1.248.492 1.248 1.632-.48 1.62-1.248 1.62z"/></defs><g fill-rule="evenodd"><rect stroke="#c3d9d1" fill="url(#A)" x=".5" y=".5" width="146" height="31" rx="5"/><g fill-rule="nonzero"><path d="M94.133 20.801v-6.189l3.967 6.189h2.269v-9.416h-2.147v5.724l-3.614-5.724H92v9.416h2.133zm11.209.199c1.024 0 1.877-.33 2.561-.989s1.026-1.498 1.026-2.517-.342-1.855-1.026-2.51-1.538-.983-2.561-.983c-1.014 0-1.866.33-2.554.989s-1.033 1.494-1.033 2.503.344 1.846 1.033 2.51 1.54.996 2.554.996zm0-1.859c-.417 0-.774-.144-1.073-.432s-.448-.693-.448-1.215.149-.925.448-1.208.657-.425 1.073-.425a1.51 1.51 0 0 1 1.08.418c.294.279.442.684.442 1.215s-.147.938-.442 1.222-.654.425-1.08.425zm7.772 1.806c.399 0 .759-.073 1.08-.219s.564-.334.727-.564c0 .212.018.425.054.637h0 1.984l-.054-1.182h0v-8.433h-2.038v3.533c-.29-.452-.897-.677-1.821-.677-.951 0-1.735.325-2.351.976s-.924 1.472-.924 2.463c0 1.009.317 1.839.951 2.49s1.431.976 2.391.976zm.258-1.806c-.426 0-.786-.144-1.08-.432s-.442-.693-.442-1.215.145-.925.435-1.208a1.52 1.52 0 0 1 1.087-.425c.426 0 .786.142 1.08.425s.442.686.442 1.208-.147.927-.442 1.215-.654.432-1.08.432zm6.413-5.777a1.2 1.2 0 0 0 .863-.345c.24-.23.36-.509.36-.837s-.12-.606-.36-.837a1.2 1.2 0 0 0-.863-.345c-.326 0-.607.115-.842.345s-.353.509-.353.837.118.606.353.837.516.345.842.345zm1.046 7.437v-6.6h-2.065v6.6h2.065zm4.905.199c1.024 0 1.877-.33 2.561-.989s1.026-1.498 1.026-2.517-.342-1.855-1.026-2.51-1.538-.983-2.561-.983c-1.014 0-1.866.33-2.554.989s-1.033 1.494-1.033 2.503.344 1.846 1.033 2.51 1.54.996 2.554.996zm0-1.859c-.417 0-.774-.144-1.073-.432s-.448-.693-.448-1.215.149-.925.448-1.208.657-.425 1.073-.425a1.51 1.51 0 0 1 1.08.418c.294.279.442.684.442 1.215s-.147.938-.442 1.222-.654.425-1.08.425zm6.984 1.66v-3.785c0-.336.102-.613.306-.83s.473-.325.808-.325c.362 0 .636.104.822.312s.279.485.279.83h0v3.798H137v-4.143c0-.77-.208-1.401-.625-1.892s-1.028-.737-1.834-.737c-.371 0-.736.082-1.094.246s-.623.392-.795.684h0v-.757h-1.997v6.6h2.065z" fill="#000"/><path d="M78.259 14.033c.798 0 1.444.705 1.444 1.574 0 .685-.402 1.268-.963 1.484v3.852c.561.216.963.799.963 1.484 0 .869-.647 1.574-1.444 1.574s-1.444-.705-1.444-1.574c0-.685.402-1.268.963-1.484v-3.851c-.561-.216-.963-.799-.963-1.484 0-.869.647-1.574 1.444-1.574zm-4.815-3.148c.798 0 1.444.705 1.444 1.574 0 .685-.402 1.268-.963 1.484v3.851c.561.216.963.799.963 1.484 0 .869-.647 1.574-1.444 1.574S72 20.148 72 19.279c0-.685.402-1.268.963-1.484v-3.851c-.561-.216-.963-.799-.963-1.484 0-.869.647-1.574 1.444-1.574zm10.111 0c.798 0 1.444.705 1.444 1.574 0 .685-.402 1.268-.963 1.484v3.851c.561.216.963.799.963 1.484 0 .869-.647 1.574-1.444 1.574s-1.444-.705-1.444-1.574c0-.685.402-1.268.963-1.484v-3.851c-.561-.216-.963-.799-.963-1.484 0-.869.647-1.574 1.444-1.574zM78.259 8c.798 0 1.444.705 1.444 1.574s-.647 1.574-1.444 1.574-1.444-.705-1.444-1.574S77.462 8 78.259 8z" fill="#398267"/><g fill="#000"><path d="M11.84 20h2.904c2.628 0 4.344-1.86 4.344-4.2 0-2.52-1.836-4.2-4.344-4.2H11.84V20zm1.764-1.668V13.28h1.032c1.572 0 2.532.78 2.532 2.52 0 1.752-.96 2.532-2.532 2.532h-1.032zm9.252 1.776c1.716 0 2.712-.996 2.88-2.124h-1.788c-.108.288-.408.624-1.092.624-.84 0-1.212-.516-1.224-1.248h4.188v-.684c0-1.704-1.08-3.06-3-3.06-2.04 0-3.072 1.476-3.072 3.252 0 1.8 1.128 3.24 3.108 3.24zm-1.212-3.912c.036-.6.384-1.068 1.176-1.068.732 0 1.08.468 1.116 1.068h-2.292zm5.076 6.552h1.848V19.4h.048c.3.36.78.708 1.668.708 1.584 0 2.544-1.368 2.544-3.24 0-1.884-.984-3.252-2.544-3.252-.888 0-1.368.348-1.668.708h-.048l-.192-.6H26.72v9.024zm3-4.26c-.936 0-1.236-.744-1.236-1.62s.324-1.632 1.236-1.632 1.236.756 1.236 1.632-.3 1.62-1.236 1.62zM33.728 20h1.848v-8.88h-1.848z"/><use href="#B"/><path d="M44.264 22.748h2.004l3.156-8.904v-.12h-1.992l-1.356 4.452h-.048l-1.272-4.452H42.86v.12L44.852 20h.312l-.9 2.628zm12-2.64c.588 0 1.08-.108 1.272-.18v-1.536h-.12a1.71 1.71 0 0 1-.6.108c-.552 0-.804-.252-.804-.84v-2.364h1.5v-1.572h-1.5V12.08h-.12l-1.644.336v1.308h-1.104v1.572h1.02v2.808c0 1.14.648 2.004 2.1 2.004z"/><use href="#B" x="22.02"/></g></g></g></svg>