<svg xmlns="http://www.w3.org/2000/svg" width="283" height="64" fill="none" xmlns:v="https://vecta.io/nano"><style><![CDATA[.B{fill:#011a43}.C{fill:#fff}.D{fill:#0a0b0d}]]></style><path d="M0 12.043C0 5.392 5.392 0 12.043 0h258.914C277.608 0 283 5.392 283 12.043v39.138c0 6.651-5.392 12.043-12.043 12.043H12.043C5.392 63.223 0 57.832 0 51.181V12.043z" fill="url(#A)"/><path d="M51.653 46.123c3.576-2.658 6.057-6.557 7.31-10.806.159-.54.289-1.083.4-1.631.721-2.216 1.168-4.524 1.347-6.812.391-5.026-.487-10.471-3.273-14.755-2.493-3.833-6.58-6.754-11.141-7.448-2.225-.338-4.639-.141-6.703.797-1.876.852-3.383 2.305-4.399 4.089-1.04 1.827-1.58 3.898-1.793 5.978-.303 2.972.18 5.972-.223 8.938-.388 2.851-1.339 5.627-2.013 8.419-.594 2.457-1.085 5.011-.75 7.545.605 4.584 4.518 7.957 8.917 8.819 4.359.854 8.804-.519 12.322-3.133z" class="B"/><path d="M32.044 43.564c-1.261-2.192-1.291-4.801-.922-7.237.385-2.536 1.102-5.029 1.762-7.503.375-1.403.731-2.815.912-4.257.175-1.395.165-2.802.136-4.204-.052-2.461-.087-4.906.562-7.302.517-1.909 1.42-3.758 2.832-5.167 1.519-1.515 3.499-2.353 5.61-2.624 4.521-.581 9.002 1.455 12.112 4.668 3.382 3.494 4.899 8.385 5.146 13.16.147 2.828-.128 5.718-.817 8.499-.008-.005-.017-.006-.025-.011-.138 1.145-.444 2.261-.838 3.343-.388 1.065-.852 2.1-1.348 3.118-.462.948-.933 1.897-1.481 2.799-1.076 1.772-2.43 3.453-4.181 4.596-.011.008-.023.009-.034.013a5.35 5.35 0 0 1-.253.165c-.007.004-.013.004-.019.007-.539.372-1.089.727-1.66 1.049-1.59.898-3.311 1.566-5.105 1.921-.926.183-1.945.299-2.904.16-3.786-.094-7.54-1.812-9.486-5.194z" fill="#efde9d"/><g fill="#ecc494"><path opacity=".64" d="M44.433 48.599c1.794-.354 3.514-1.023 5.105-1.921l1.66-1.049c.007-.003.013-.003.019-.007l.253-.165c.011-.005.023-.006.034-.014 1.751-1.143 3.105-2.824 4.181-4.596.548-.902 1.019-1.851 1.481-2.799l1.348-3.118c.395-1.082.7-2.199.838-3.343.008.004.016.006.025.011.689-2.781.964-5.671.817-8.499-.248-4.776-1.765-9.667-5.146-13.16-3.11-3.213-7.59-5.25-12.111-4.669-2.111.271-4.091 1.109-5.61 2.624-1.412 1.409-2.315 3.258-2.832 5.167-.649 2.395-.614 4.84-.562 7.301.03 1.403.039 2.81-.136 4.204-.181 1.443-.537 2.855-.912 4.257-.66 2.474-1.377 4.967-1.762 7.503-.37 2.437-.34 5.045.922 7.237 1.946 3.382 5.7 5.1 9.486 5.194.959.139 1.978.023 2.904-.16zm-2.128-7.891c-2.529-1.454-4.04-4.516-3.947-7.396.063-1.939.735-3.839 1.242-5.694.268-.983.513-1.977.641-2.99.135-1.064.106-2.133-.01-3.197-.229-2.096-.765-4.165-.746-6.284.015-1.694.437-3.406 1.373-4.833.778-1.186 1.9-2.106 3.251-2.558 1.525-.51 3.228-.395 4.764.01.288.076.57.168.849.267 2.162.574 4.152 1.836 5.637 3.495.568.634 1.086 1.328 1.481 2.083.442.845.759 1.75 1.039 2.659.505 1.638.938 3.272 1.099 4.983a23.35 23.35 0 0 1-1.277 10.003c-1.131 3.139-3.042 5.969-5.767 7.936-2.673 1.929-6.543 3.29-9.629 1.515z"/><path opacity=".64" d="M44.433 48.599c1.794-.354 3.514-1.022 5.105-1.921l1.66-1.049c.007-.003.013-.003.019-.007l.253-.166c.011-.004.023-.006.034-.013 1.751-1.143 3.105-2.824 4.181-4.596.548-.902 1.019-1.851 1.481-2.799l.575-1.232a19.72 19.72 0 0 1-2.053 2.788c-.992 1.121-2.096 2.139-3.264 3.075-1.3 1.043-2.674 2.01-4.168 2.757-2.651 1.326-5.686 1.787-8.565.954-2.198-.636-4.057-2.086-5.158-4.099-1.292-2.361-1.556-5.212-1.096-7.833.531-3.03 1.954-5.817 2.51-8.841.148-.807.236-1.627.211-2.448-.028-.917-.17-1.824-.335-2.725-.31-1.688-.651-3.343-.521-5.068a14.94 14.94 0 0 1 1.21-4.886c.568-1.293 1.311-2.524 2.325-3.516a8.57 8.57 0 0 1 .95-.799c-.901.427-1.735.992-2.461 1.717-1.412 1.409-2.315 3.259-2.832 5.167-.649 2.395-.614 4.84-.562 7.301.03 1.403.039 2.81-.136 4.204-.181 1.443-.537 2.855-.912 4.257l-1.762 7.503c-.37 2.437-.34 5.045.922 7.237 1.946 3.382 5.7 5.1 9.486 5.194.959.139 1.978.023 2.904-.16z"/></g><path d="M34.625 28.75c.812-.301 1.144-1.378 1.345-2.131.258-.971.404-2.04.25-3.041-.06-.389-.213-.888-.589-1.082-.029-.015-.058-.026-.089-.036-.242-.335-.778-.294-.688.198.343 1.872-.653 3.682-.84 5.52-.027.268.319.679.612.571z" fill="#9d6e4f"/><path d="M55.303 30.897c2.041-2.894 2.446-6.703 2.048-10.138-.285-2.464-.672-5.472-3.121-6.77-.714-.379-1.593-.502-2.338-.188-1.681.708-1.33 2.985-.931 4.38.268.937.606 1.853.842 2.799.228.915.329 1.852.308 2.795-.037 1.753-.622 3.331-1.313 4.916-.291.668-.571 1.405-.513 2.147.067.864.596 1.717 1.46 1.973 1.377.407 2.834-.888 3.558-1.914zm-6.074-18.02a1.7 1.7 0 0 0 1.335-.707c1.082-1.491-.578-3.193-2.143-3.075-.878.067-1.701.83-1.674 1.711.012.389.177.762.41 1.075.468.628 1.299 1.033 2.072.997z" fill="#efde9d"/><path d="M54.881 45.243c-.17.444-.94.819-.452 1.316.541.55.878-.198 1.24-.492 1.8-1.462 3.736-1.529 5.195-.162 1.67 1.565 2.022 4.027.498 5.726-3.153 3.515-7.254 4.819-11.883 4.356-1.947-.195-3.823-.832-5.701-1.905.711-.327 1.306-.576 1.876-.872.312-.162.715-.404.538-.811-.232-.533-.641-.29-1.043-.106-2.252 1.032-4.562 1.909-7 2.396-.553.11-1.123.136-1.685.201-3.433.439-6.729-1.203-7.979-3.974-1.107-2.455.275-5.094 3.011-5.746.708-.008 1.215.411 1.735.808.372.284.706 1.082 1.162.673.599-.537-.108-1.055-.466-1.512-1.988-.879-3.408-5.17-2.972-5.173 1.047.423 6.311 5.69 7.374 6.071.78.28 1.678.948 2.33.134.664-.83.136-1.551-.292-2.261-1.685-2.793-3.084-5.696-3.81-8.911-.259-1.149-.079-1.545 1.153-1.689 4.257-.499 7.932 1.745 9.31 5.823.05.147.11.291.165.436.139.362.164.978.678.837.559-.153.451-.767.312-1.209-.486-1.544-1.196-2.975-2.388-4.107-.365-.347-.81-.61-1.419-1.059 2.574-1.2 4.784-1.413 7.106-.697.821.253 1.137.516.941 1.506-.666 3.361-2.22 6.321-3.911 9.227-.414.712-.622 1.203.003 1.959.899.51 1.032.745 1.77.47.96-.358 1.94-.665 2.911-.994.569-.047 1.039-.762 1.692-.255z" class="C"/><path opacity=".64" d="M52.855 29.842c1.894 1.066 2.989 2.707 3.487 4.822.668 2.84-.382 5.254-1.736 7.609-.24.418-.629.747-.758 1.236-1.018 1.303-2.518 1.773-3.991 2.271-.254.086-.659.104-.835-.04-.37-.306.039-.617.185-.874 1.59-2.804 3.082-5.645 3.696-8.856.194-1.016.2-2.04.17-3.066-.011-.36-.12-.716-.553-.699-.368.015-.427.338-.405.653.047.701-.336.681-.831.51-2.449-.849-4.803-.484-7.101.566-.525.24-1.013.194-1.545-.034-1.608-.689-3.276-.929-5.006-.536-.389.088-.813.211-.806-.441.004-.352-.063-.772-.475-.716-.42.057-.558.499-.582.915-.1 1.732.254 3.404.787 5.028.809 2.463 1.948 4.78 3.33 6.976.096.153.13.345.234.631-1.336.149-2.324-.439-3.302-1.056-1.919-1.541-3.237-3.422-3.859-5.872-.964-3.795.018-6.895 3.316-9.068" fill="#ecc494"/><use href="#B" class="D"/><use href="#C" class="C"/><g opacity=".35" class="C"><use href="#D"/></g><path d="M44.231 24.438l-.367-.096c.739-2.817.774-4.795.104-5.878-.284-.459-.702-.751-1.244-.867-.934-.076-1.571.5-1.943.996-1.052 1.404-1.336 3.895-.646 5.671l-.354.137c-.732-1.886-.426-4.537.696-6.036.618-.825 1.41-1.221 2.291-1.146.008.001.015.002.023.003.653.137 1.157.487 1.5 1.041.727 1.175.706 3.253-.06 6.174z" class="B"/><use href="#B" x="9.934" class="D"/><use href="#C" x="9.902" class="C"/><g opacity=".35" class="C"><use href="#D" x="9.663"/></g><path d="M54.15 24.438l-.367-.096c.739-2.817.774-4.795.104-5.878-.284-.459-.702-.751-1.244-.867-.934-.076-1.571.5-1.943.996-1.052 1.404-1.336 3.895-.646 5.671l-.354.137c-.732-1.886-.426-4.537.697-6.036.618-.825 1.41-1.221 2.291-1.146l.023.003c.653.137 1.157.487 1.5 1.041.727 1.175.707 3.253-.06 6.174zm5.977 19.748c-.296-.138-.836-.09-.819-.564.061-1.693-.884-3.339-.498-4.983a13.33 13.33 0 0 0 .297-1.813c-.906 1.863-2.059 3.6-3.448 5.131a11.79 11.79 0 0 1-1.225 1.424c-.678.868-1.559 1.384-2.508 1.78a18.62 18.62 0 0 1-3.179 1.681c.465.269.999.182 1.561-.028l2.889-.987c1.684-1.249 3.263-2.595 4.164-4.62.987 1.753.686 2.76-.905 3.468-.551.245-1.054.596-1.579.898-.169.441-.933.813-.448 1.306.537.546.871-.197 1.231-.489 1.787-1.451 3.708-1.518 5.156-.161 1.658 1.553 2.007 3.997.495 5.683-3.129 3.489-7.2 4.783-11.794 4.323-1.932-.194-3.794-.826-5.658-1.891.705-.324 1.296-.571 1.862-.865.31-.161.709-.401.534-.805-.23-.529-.636-.288-1.035-.105-2.235 1.024-4.527 1.895-6.947 2.378-.549.11-1.114.135-1.672.199-3.912.954-8.14-1.036-9.425-4.444-.61-1.617-.144-3.056.946-4.249.93-1.018 2.098-1.636 3.548-.954.702-.008 1.206.408 1.722.802.37.282.7 1.074 1.153.668.595-.533-.107-1.047-.463-1.501-.345-.207-.722-.376-1.029-.63-.588-.487-1.67-.196-1.944-.98-.336-.961-.2-1.986-.04-3.032a9.78 9.78 0 0 1-.591-2.284c-.34-2.575.629-5.219 1.224-7.723-.883 1.487-1.834 3.231-1.713 5.172.093 1.497.101 2.953-.319 4.402-.261.901-.361 1.844-.112 2.748.195.708-.201.857-.682 1.09-3.243 1.576-4.348 5.323-2.38 8.288 1.286 1.938 3.028 3.328 5.366 3.857 3.27.741 6.428.16 9.542-.819a2.44 2.44 0 0 1 2.03.169c2.206 1.136 4.532 1.905 7.058 1.968 4.333.083 8.219-1.142 11.35-4.219 3.004-2.952 2.108-7.506-1.715-9.289z" class="B"/><path d="M43.908 48.429c-.199.046-.379.606-.395.937-.11 2.201-1.601 3.219-3.382 3.937-1.52.612-3.848-1.305-3.611-2.924.072-.489-.14-1.04.407-1.585.748 2.115 1.735 2.755 3.287 2.325.798-.221 1.031-.947 1.54-1.416.444-.409.431-1.048.634-1.614a14.35 14.35 0 0 1-2.519-.263c-1.987-.389-3.879-1.266-5.443-2.521-.112.002-.226.044-.341.163.356.453 1.058.967.463 1.5-.453.406-.784-.386-1.153-.668-.517-.394-1.02-.81-1.722-.802l-1.931 1.489c-1.548 1.435-1.559 3.503-.035 5.154 1.853 2.007 4.043 3.277 6.897 3.004l1.672-.199c2.42-.483 4.712-1.354 6.947-2.378.399-.183.805-.424 1.035.105.176.404-.224.644-.533.805l-1.862.865c1.864 1.065 3.726 1.697 5.658 1.891 4.594.46 8.665-.834 11.794-4.323 1.512-1.686 1.163-4.129-.495-5.683-1.448-1.357-3.369-1.29-5.156.161-.359.292-.694 1.035-1.231.489-.485-.493.279-.865.448-1.306l-1.667.252c-.977.328-1.752.295-2.705.651 0 0-.569.092-1.066.085-1.314.538-3.377 1.198-4.777 1.388-.083.204-.298.374-.76.481zm6.328 4.248c.209-.44.477-.099.745.002 2.373.891 3.801-.173 3.586-2.661-.022-.249-.134-.537.216-.628.294-.077.468.167.635.351.804.889.702 1.881.262 2.877-.531 1.201-1.624 1.456-2.762 1.595a5.66 5.66 0 0 1-2.34-.764c-.281-.164-.496-.449-.343-.771z" class="C"/><use href="#E" class="D"/><g class="B"><use href="#E"/><path d="M54.547 43.087c-.047.093-.087.189-.115.293a11.76 11.76 0 0 0 1.225-1.424l-1.111 1.13z"/></g><path d="M54.443 43.184l-.01.196a1.51 1.51 0 0 1 .115-.294l-.104.098z" class="D"/><g fill="#d5e7ef"><path d="M28.687 51.201c-1.099-2.436.273-5.055 2.988-5.703-1.45-.682-2.617-.064-3.548.954-1.09 1.193-1.556 2.632-.946 4.249 1.285 3.408 5.513 5.398 9.425 4.444-3.407.436-6.678-1.194-7.919-3.944z"/><path d="M29.705 52.141c-1.524-1.651-1.513-3.718.035-5.154.594-.55 1.285-.996 1.931-1.489-2.715.648-4.087 3.267-2.988 5.703 1.241 2.751 4.512 4.38 7.919 3.944-2.854.273-5.044-.997-6.897-3.004z"/></g><path d="M34.282 45.19c-1.412-1.168-2.542-2.651-3.212-4.364-.159 1.045-.295 2.07.04 3.032.274.784 1.356.494 1.944.98.307.254.684.423 1.029.63a.99.99 0 0 1 .199-.278z" class="B"/><path d="M34.425 45.305l-.142-.115c-.066.06-.132.148-.199.278.115-.119.229-.161.341-.163z" fill="#d5e4eb"/><g fill="#dfe8ea"><path d="M54.88 45.573l1.579-.899c1.591-.708 1.892-1.715.905-3.468-.901 2.025-2.48 3.371-4.164 4.62.573-.058 1.036-.752 1.68-.254z"/><path d="M53.215 45.825l1.667-.252c-.644-.499-1.107.196-1.667.252z"/></g><path d="M42.379 48.088c-.203.566-.19 1.204-.634 1.614-.509.469-.742 1.194-1.54 1.416-1.552.43-2.54-.21-3.287-2.325-.547.546-.336 1.096-.407 1.585-.237 1.619 2.092 3.537 3.611 2.924 1.781-.718 3.272-1.735 3.382-3.937.017-.331.196-.891.395-.937.462-.107.677-.277.76-.481a15.11 15.11 0 0 1-2.279.14z" fill="#d5e7ef"/><path d="M50.568 53.448a5.66 5.66 0 0 0 2.339.764c1.138-.138 2.232-.394 2.762-1.594.44-.995.542-1.987-.263-2.877-.166-.184-.34-.427-.634-.351-.351.091-.238.379-.216.628.215 2.488-1.213 3.552-3.586 2.661-.269-.101-.537-.441-.745-.002-.153.322.062.607.343.771z" fill="#daecf2"/><g class="B"><path d="M59.126 34.986l-.49 1.042-1.226 2.374c-.357 1.266-.96 2.476-1.75 3.555 1.389-1.531 2.542-3.268 3.448-5.131.059-.633.064-1.245.019-1.839z"/><path d="M57.075 38.974l-.971 1.459-.875 1.646c-.201.35-.5.643-.683 1.007l1.11-1.13c.79-1.079 1.393-2.288 1.75-3.555l-.333.572z"/></g><g class="D"><path d="M59.132 34.986l.115-.255-.115.247z"/><use href="#F"/><use href="#F"/><path d="M59.247 34.731h0 0z"/></g><g class="B"><path d="M60.037 43.756c-.294-.137-.83-.09-.813-.56.049-1.349-.544-2.667-.584-3.979h-1.721c-.581 1.389-1.457 2.673-2.537 3.739-1.065 1.363-2.633 1.854-4.173 2.375-.265.09-.69.109-.873-.042-.388-.32.041-.645.194-.914 1.663-2.932 3.223-5.902 3.864-9.26.203-1.062.209-2.133.178-3.206-.011-.376-.126-.748-.578-.731-.385.015-.446.353-.424.683.049.733-.352.713-.868.533-2.561-.888-5.023-.506-7.425.592-.549.251-1.059.203-1.615-.036-1.681-.72-3.425-.971-5.235-.561-.406.092-.85.221-.843-.461.004-.368-.066-.808-.497-.749-.439.06-.584.522-.609.957-.104 1.811.265 3.559.823 5.257.846 2.576 2.036 4.998 3.482 7.295.101.16.274.345.042.569-1.398.156-2.227-.368-3.249-1.013h0c-2.729-1.312-4.094-3.718-5.367-6.42l-.098-2.265c-.039.726-1.116 3.712-1.324 4.431-.259.895-.359 1.831-.111 2.73.194.704-.2.851-.677 1.083-3.221 1.565-4.319 5.287-2.364 8.232 1.277 1.925 3.007 3.305 5.33 3.831 3.248.735 6.385.159 9.478-.814.735-.231 1.325-.188 2.016.168 2.191 1.128 4.501 1.892 7.011 1.955 4.303.082 8.164-1.134 11.274-4.191 2.984-2.932 2.093-7.455-1.704-9.227zm1.176 7.674c-3.108 3.466-7.151 4.751-11.715 4.294-1.919-.192-3.769-.82-5.62-1.878.701-.322 1.287-.567 1.85-.86.307-.16.705-.399.53-.8-.229-.526-.632-.286-1.028-.105-2.22 1.017-4.497 1.882-6.9 2.362-.545.109-1.107.134-1.661.198-3.886.948-8.085-1.029-9.362-4.414-.605-1.606-.143-3.035.94-4.221.924-1.012 2.084-1.625 3.524-.948.698-.008 1.197.405 1.711.797.367.28.696 1.067 1.146.663.591-.53-.106-1.04-.46-1.49-.343-.206-.717-.374-1.022-.626-.584-.483-1.658-.195-1.93-.974-.378-1.084-.153-2.25.024-3.435 1.008 2.069 2.49 3.673 4.218 5.069 1.032.417 2.054.865 3.101 1.241.77.276 1.603.543 2.245-.259.655-.818.134-1.529-.288-2.229-1.661-2.753-3.04-5.615-3.756-8.785-.256-1.132-.078-1.523 1.137-1.665 4.196-.492 7.819 1.72 9.178 5.74.049.145.108.286.163.429.137.357.161.964.668.825.551-.151.445-.756.307-1.191-.48-1.523-1.179-2.933-2.354-4.049-.36-.342-.798-.601-1.399-1.044 2.538-1.183 4.717-1.393 7.005-.687.809.249 1.121.508.928 1.484-.656 3.313-2.189 6.231-3.856 9.096-.408.702-.818 1.336-.202 2.081.543.657 1.222.585 1.949.314.947-.353 1.912-.656 2.87-.98 1.673-1.24 3.241-2.578 4.136-4.589.98 1.741.682 2.741-.899 3.444-.547.243-1.047.592-1.568.893-.168.438-.927.807-.445 1.297.533.542.865-.196 1.223-.486 1.775-1.441 3.683-1.507 5.121-.16 1.647 1.543 1.994 3.97.492 5.644zm4.425-34.487c-.248.781-.146 1.587.22 1.867a.66.66 0 0 0 .163.116c.666.342 1.811-.16 2.557-1.121s.811-2.016.144-2.358-.981.519-1.727 1.48l-.23.144a2.3 2.3 0 0 1 .115-.265c.22-.448.293-.786-.006-.948-.421-.228-.975.258-1.238 1.085zm-45.538.55c.248.781.146 1.587-.22 1.867a.66.66 0 0 1-.163.116c-.666.341-1.811-.16-2.557-1.121s-.81-2.016-.144-2.358.981.519 1.727 1.48l.23.144a2.33 2.33 0 0 0-.115-.265c-.22-.448-.293-.786.006-.948.421-.228.975.258 1.238 1.085z"/><path d="M58.573 27.759c.033-.013.065-.032.094-.056a36.13 36.13 0 0 0 4.266-4.187 35.62 35.62 0 0 0 3.32-4.529.35.35 0 1 0-.597-.369c-.96 1.555-2.055 3.048-3.254 4.439a35.42 35.42 0 0 1-4.183 4.105.35.35 0 0 0-.046.494.35.35 0 0 0 .4.102z"/></g><g stroke="#011a43" stroke-width=".15"><path d="M50.42 25.168c.38-.142.695-.194.971-.104.239.078.463.269.678.634l.092.167c.701 1.378.337 2.765-.588 3.876l-.192.219-.243.245-.068.064-.191.17-.184.148-.093.072-.096.069v.001l-.098.069v.001l-.084.057-.001.001-.213.139-.221.132-.039.022-.04.022-.035.019-.037.02-.104.055-.001.001-.164.082-.105.05-.19.085h-.001l-.1.043-.171.067-.195.071-.237.076h-.001l-.36.1-.109.025-.002.001-.064.014h-.003l-.079.017-.003.001-.117.022-.186.031-.001.001-.095.014h-.001l-.219.026h-.001l-.108.011-.17.012-.001.001-.113.005h-.002l-.148.005-.116.001c-.069 0-.139-.002-.208-.004h.001l-.169-.009h-.008l-.011.073.011-.074h-.008l-.064-.005h-.001l-.199-.02h-.002l-.173-.023-.002-.001-.203-.033h-.001l-.201-.041h-.001l-.198-.049-.165-.047h-.001l-.051-.016-.141-.047h-.003l-.025-.009-.001-.001c-1.353-.476-2.419-1.507-2.806-3.05l-.068-.315v-.001c-.106-.578-.011-.91.208-1.111.169-.156.423-.245.752-.296l.355-.04 1.707-.059c.561-.023 1.167-.073 1.787-.201l.267-.061c.763-.186 1.422-.464 1.994-.734l1.15-.554.328-.136z" fill="#a3041b"/><path d="M49.072 28.66c.812-.198 1.705.348 2.274 1.338-.777.819-1.856 1.458-3 1.782l-.233.061c-1.154.281-2.309.24-3.31-.101.008-1.133.493-2.053 1.251-2.335l.158-.049c.525-.128 1.081.053 1.566.466l.078.066.039-.096c.211-.516.552-.899.985-1.072l.191-.062z" fill="#e20613"/></g><path d="M50.379 25.187a.77.77 0 0 1 .141.222l.03.095c.049.203.005.424-.129.654s-.357.468-.653.695c-.519.397-1.256.759-2.117 1.01l-.377.101c-1.023.249-1.989.291-2.725.161-.368-.065-.674-.172-.899-.315-.197-.125-.33-.276-.394-.447l-.023-.074h-.001a.75.75 0 0 1 .012-.379l1.655-.055c.561-.023 1.167-.073 1.787-.201l.267-.061c.763-.186 1.422-.464 1.994-.734l1.432-.671z" stroke="#000" stroke-width=".15" class="C"/><path d="M50.638 17.327c-.174-.036-.303-.176-.291-.325.098-1.215 1.348-2.078 2.786-1.923 1.343.145 2.472 1.124 2.624 2.277.021.158-.114.287-.3.288s-.355-.125-.375-.283c-.115-.87-.96-1.608-1.967-1.717-1.078-.116-2.015.535-2.089 1.452-.013.155-.174.26-.362.234l-.026-.004zm-9.612-.315c-.175-.036-.303-.177-.291-.325.098-1.216 1.348-2.078 2.786-1.923 1.343.145 2.472 1.124 2.624 2.277.021.158-.113.287-.3.288s-.355-.125-.375-.283c-.115-.87-.962-1.608-1.967-1.717-1.078-.116-2.015.535-2.089 1.452-.013.155-.174.26-.362.234l-.026-.004z" class="B"/><path d="M38.02 21.736c.166 0 .3-.459.3-1.025s-.134-1.025-.3-1.025-.3.459-.3 1.025.134 1.025.3 1.025zm.028.932c.112 0 .202-.147.202-.329s-.091-.329-.202-.329-.202.147-.202.329.091.329.202.329z" fill="#fefffc"/><path d="M19.387 18.372c3.23.434 3.048 9.311 6.306 9.188 3.074-.116 6.165-.484 9.185-1.094.32-.064.621.149.673.476a.63.63 0 0 1-.487.709 58.69 58.69 0 0 1-9.368 1.116c-3.323.126-3.207-8.754-6.501-9.197-.062-.008-.121-.027-.174-.053-.22-.109-.352-.358-.31-.624.053-.331.357-.564.677-.521z" class="B"/><path d="M79.071 25.473c1.373 0 2.559.259 3.559.777 1.011.506 1.782 1.234 2.312 2.186.542.951.813 2.071.813 3.36s-.271 2.409-.813 3.36c-.53.939-1.301 1.662-2.312 2.168-1 .494-2.186.741-3.559.741h-3.92V25.473h3.92zm0 11.236c1.626 0 2.866-.428 3.721-1.283.855-.867 1.283-2.077 1.283-3.631 0-1.566-.434-2.788-1.301-3.667-.855-.879-2.089-1.319-3.703-1.319h-2.276v9.899h2.276zm17.884-3.974a9.68 9.68 0 0 1-.054.993h-7.912c.06.976.391 1.74.993 2.294.614.542 1.355.813 2.222.813.71 0 1.301-.163 1.77-.488a2.66 2.66 0 0 0 1.012-1.337h1.77c-.265.951-.795 1.728-1.59 2.33-.795.59-1.782.885-2.962.885-.939 0-1.782-.211-2.529-.632-.735-.422-1.313-1.018-1.734-1.788-.421-.783-.632-1.686-.632-2.709s.205-1.921.614-2.691a4.27 4.27 0 0 1 1.716-1.77c.747-.421 1.602-.632 2.565-.632.939 0 1.77.205 2.493.614a4.18 4.18 0 0 1 1.662 1.698c.397.711.596 1.517.596 2.421zm-1.698-.343c0-.626-.138-1.162-.415-1.608a2.61 2.61 0 0 0-1.138-1.03c-.47-.241-.994-.361-1.572-.361-.831 0-1.541.265-2.131.795-.578.53-.909 1.265-.994 2.204h6.25zm5.512-2.403c.325-.566.807-1.036 1.445-1.409.65-.385 1.403-.578 2.258-.578.879 0 1.674.211 2.384.632.723.422 1.289 1.018 1.698 1.788.41.759.614 1.644.614 2.655 0 .999-.204 1.891-.614 2.673a4.52 4.52 0 0 1-1.698 1.824 4.48 4.48 0 0 1-2.384.65c-.843 0-1.59-.187-2.24-.56-.638-.385-1.126-.861-1.463-1.427v6.521h-1.644V28.165h1.644v1.825zm6.719 3.089c0-.747-.15-1.397-.451-1.951a3.12 3.12 0 0 0-1.228-1.265c-.506-.289-1.066-.433-1.68-.433a3.28 3.28 0 0 0-1.68.452c-.506.289-.916.716-1.229 1.282-.301.554-.451 1.198-.451 1.933 0 .747.15 1.403.451 1.969.313.554.723.982 1.229 1.283.517.289 1.077.434 1.68.434.614 0 1.174-.145 1.68-.434.517-.301.927-.729 1.228-1.283.301-.566.451-1.228.451-1.987zm5.488-8.382v13.367h-1.644V24.697h1.644zm7.119 13.53c-.928 0-1.77-.211-2.529-.632-.747-.422-1.337-1.018-1.77-1.788-.422-.783-.633-1.686-.633-2.709 0-1.012.217-1.903.651-2.674a4.52 4.52 0 0 1 1.806-1.788c.759-.421 1.608-.632 2.547-.632s1.788.211 2.547.632a4.43 4.43 0 0 1 1.788 1.77c.446.771.669 1.668.669 2.691s-.229 1.927-.687 2.709c-.445.771-1.053 1.367-1.824 1.788s-1.626.632-2.565.632zm0-1.445a3.47 3.47 0 0 0 1.662-.416c.517-.277.933-.692 1.246-1.246.325-.554.488-1.228.488-2.023s-.157-1.469-.47-2.023-.722-.963-1.228-1.228a3.37 3.37 0 0 0-1.644-.415c-.602 0-1.156.138-1.662.415-.494.265-.891.674-1.192 1.228s-.452 1.228-.452 2.023c0 .807.145 1.487.434 2.041.301.554.698.969 1.192 1.246.494.265 1.036.397 1.626.397zm15.763-8.617l-5.961 14.56h-1.698l1.951-4.769-3.992-9.791h1.824l3.107 8.02 3.071-8.02h1.698zm10.786 10.062c-.928 0-1.771-.211-2.529-.632-.747-.422-1.337-1.018-1.771-1.788-.421-.783-.632-1.686-.632-2.709 0-1.012.217-1.903.651-2.674a4.52 4.52 0 0 1 1.806-1.788c.759-.421 1.608-.632 2.547-.632s1.788.211 2.547.632a4.43 4.43 0 0 1 1.788 1.77c.446.771.669 1.668.669 2.691s-.229 1.927-.687 2.709a4.65 4.65 0 0 1-1.824 1.788c-.771.422-1.626.632-2.565.632zm0-1.445a3.47 3.47 0 0 0 1.662-.416c.517-.277.933-.692 1.246-1.246.325-.554.488-1.228.488-2.023s-.157-1.469-.47-2.023-.723-.963-1.228-1.228a3.37 3.37 0 0 0-1.644-.415c-.602 0-1.156.138-1.662.415-.494.265-.891.674-1.192 1.228s-.452 1.228-.452 2.023c0 .807.145 1.487.434 2.041.301.554.698.969 1.192 1.246.494.265 1.036.397 1.626.397zm12.06-8.797c1.204 0 2.18.367 2.926 1.102.747.723 1.12 1.77 1.12 3.143v5.835h-1.626v-5.6c0-.987-.246-1.74-.74-2.258-.494-.53-1.168-.795-2.023-.795-.867 0-1.56.271-2.078.813-.505.542-.758 1.331-.758 2.366v5.473h-1.644v-9.899h1.644v1.409c.325-.506.764-.897 1.318-1.174.566-.277 1.187-.415 1.861-.415zm16.461 2.013l.04-.049 2.475-3.016c1.024-1.244 1.003-1.208-.426-2.045-.803-.471-1.271-.428-1.883.363l-2.266 2.834c-.262-.138-.525-.228-.791-.269l.041-1.478c.037-.99-.357-1.309-1.442-1.435-1.927-.224-1.92-.265-1.922 1.33l-.014 3.863-.011 3.196-.005 1.392c-.001.291-.033.56-.126.798-.155.393-.478.704-1.115.893-1.233.367-.269 1.14-.303 1.717-.03.513.332.7 1.035.653 2.689-.179 3.797-1.093 3.823-3.354l.01-1.883 1.076-1.31 2.47 2.758 2.605 2.91c1.074 1.203 1.041 1.176 2.138-.047.618-.688.658-1.145-.032-1.872l-5.377-5.948zm51.654-4.525l-.32-.123c-.053-.648-.607-1.158-1.284-1.158-.135 0-.264.02-.386.057-.063-.071-.118-.154-.176-.243-2.516-3.873-8.46-3.918-11.022-.08-.058.087-.112.17-.171.244a1.36 1.36 0 0 0-.345-.046 1.3 1.3 0 0 0-1.309 1.2 2.25 2.25 0 0 1-.202.074c-1.779.584-2.997 2.128-3.077 3.873-.04.868.16 1.7.563 2.406-.463 1.382-.497 2.803-.003 4.229.562 1.624 1.729 2.575 3.419 2.977 1.614.383 3.185.042 4.778-.158.505-.063.759-.218.878-.502a1.09 1.09 0 0 0 .071-.269c.018-.12.025-.253.024-.405l.01-8.674.005-1.307.005-1.003c.005-1.73.01-1.695-1.789-1.42-.809.124-1.24.344-1.121 1.263.105.827.017 1.678.014 2.462-.397.155-.642-.051-.918-.11-2.051-.441-3.865.215-4.838 1.744a3.49 3.49 0 0 1-.129-1.02c.025-1.467.795-2.535 2.174-3.154a1.7 1.7 0 0 1 .411-.138 1.32 1.32 0 0 0 1.034.493c.726 0 1.313-.574 1.313-1.28a1.25 1.25 0 0 0-.189-.66 1.71 1.71 0 0 1 .128-.21c1.152-1.676 2.753-2.561 4.746-2.598 2.152.035 3.739.914 4.897 2.559.055.079.104.158.145.239a1.23 1.23 0 0 0-.231.716c0 .695.578 1.258 1.29 1.258.431 0 .811-.207 1.045-.523.091.012.184.04.281.075 1.384.49 2.36 1.731 2.37 3.178.003.598-.115 1.135-.346 1.608a4.26 4.26 0 0 0-.832-1.13c-.479-.456-1.053-.743-1.689-.96-1.332-.456-2.587-.05-3.939.335l.013-4.249c-1.522-.247-1.841.409-1.796 1.732l.021.794.022 1.359-.038 6.668c-.003 1.063.015 1.804.155 2.323a1.87 1.87 0 0 0 .111.307c.378.813 1.283.879 3.42.861.041 0 .083.002.124 0 2.085-.103 3.774-.842 4.625-2.837.566-1.329.596-2.922.182-4.271a4.24 4.24 0 0 0 .769-2.402c.016-1.847-1.107-3.449-2.893-4.101zm-14.604 6.293a1.68 1.68 0 0 1 1.336-.696c.369-.02.757.038 1.141.1.905.148.662.859.675 1.428.011.482 0 .965-.002 1.447-.001.321.056.657-.016.962-.127.535.429 1.336-.402 1.572a3.1 3.1 0 0 1-.476.096c-.734.088-1.46-.112-2.027-.71-.474-.499-.728-1.374-.742-2.236-.006-.329.024-.656.089-.96.082-.387.223-.735.424-1.003zm14.566 4.315c-.751 1.242-2.486 1.779-4.163 1.337-.055-.014-.102-.031-.146-.049-.35-.146-.374-.413-.369-.753l.01-2.529c.001-.481-.013-.964.007-1.445.032-.795-.27-1.68.927-2.051a4.56 4.56 0 0 1 1.134-.201c.859-.041 1.676.18 2.203.707.346.345.599.853.753 1.428a5.33 5.33 0 0 1 .153.87c.085.956-.074 1.967-.509 2.686zm-34.454-7.532c-3.018-.023-5.056 2.064-5.057 5.179-.001 3.143 1.982 5.257 4.963 5.291 2.988.034 5.024-2.062 5.049-5.199.026-3.148-1.948-5.247-4.955-5.27zm1.712 6.771c-.323.759-.877 1.267-1.768 1.252-.871-.014-1.462-.466-1.769-1.254-.393-1.012-.395-2.052-.028-3.054.278-.756.832-1.261 1.745-1.276.954-.015 1.536.444 1.86 1.277.192.493.28 1.002.225 1.531.067.534-.061 1.042-.265 1.524zm11.406-6.48c-.899-.034-.985.313-.972 1.024l-.006 5.438c-.005 1.253-.349 1.52-1.615 1.27-1.004-.198-1.304-.922-1.331-1.779l-.017-3.987c.003-2.024.006-1.997-2.1-1.978-.63.006-.869.142-.854.797l.016 5.196c.109 2.836 1.543 4.161 4.452 4.189 1.199.012 2.378-.187 3.561-.37.71-.11.853-.431.837-1.05l-.001-3.867.008-2.901c.006-1.969.004-1.909-1.978-1.983zm28.577.031c-2.771.653-4.107 3.109-3.529 6.488.43 2.51 2.601 4.008 5.455 3.752.492-.044.992-.092 1.465-.22.503-.136 1.168-.095.958-1.022-.204-.905-.651-.614-1.222-.481-2.536.591-4.278-.212-4.79-2.122-.161-.602-.118-.901.635-.857.905.053 1.814.017 2.722.019l2.722.002c.302-.004.622.092.751-.389.79-2.955-2.126-5.887-5.167-5.17zm2.297 4.168c-.482-.065-.981-.014-1.472-.015-.532-.001-1.07-.053-1.595.006-1.104.123-1.006-.432-.699-1.111.471-1.043 1.269-1.656 2.47-1.629 1.138.025 1.787.711 2.122 1.692.233.681.14 1.187-.826 1.057zm11.764 2.184l.008-2.173c.007-3.173-1.275-4.378-4.536-4.229-.531.024-1.055.174-1.587.213-.772.057-.6.524-.586 1.027.023.777.443.522.888.449.608-.099 1.231-.181 1.843-.162 1.39.046 2.114.791 2.19 2.115.031.531-.081.717-.694.57-1.145-.275-2.301-.162-3.408.225-1.449.508-2.146 1.614-2.002 3.087.135 1.389 1.031 2.312 2.485 2.62 1.487.316 2.958.021 4.434-.058.748-.04 1.042-.388.974-1.152-.075-.838-.012-1.688-.009-2.534zm-1.783.826c-.007 1.547-.007 1.547-1.753 1.555-1.738.008-2.517-.508-2.49-1.648.026-1.097.902-1.615 2.702-1.598 1.547.014 1.548.016 1.541 1.691zm11.523-4.271c-.293-1.603-1.162-2.444-2.81-2.788-1.49-.311-2.943.004-4.41.208-.66.092-.77.39-.759.948l-.003 3.984-.029 3.983c-.033.722.26.849.924.859.706.012.906-.203.896-.883l.016-6.519c.003-.335-.161-.735.257-.98 1.634-.954 4.059.228 4.16 2.095l.067 5.548c-.003.587.214.824.793.733.42-.066 1.097.279 1.07-.566-.073-2.209.228-4.427-.172-6.625zm-71.836 4.725c-.873-.31-1.053-.927-1.052-1.698l.014-4.587.012-3.863c.007-1.595.014-1.554-1.638-1.342-.929.119-1.269.437-1.243 1.427l.014 9.052c.009 2.262.952 3.182 3.253 3.376.601.051.912-.134.889-.648-.026-.577.804-1.344-.249-1.718z" class="C"/><defs><linearGradient id="A" x1="0" y1="31.612" x2="283" y2="31.612" gradientUnits="userSpaceOnUse"><stop stop-color="#000f27"/><stop offset="1" stop-color="#00368d"/></linearGradient><path id="B" d="M39.945 24.331c-1.185-4.648.345-6.236 2.668-6.931 1.96.336 2.357 2.768 1.422 6.99a11.67 11.67 0 0 0-4.09-.058z"/><path id="C" d="M42.175 22.066c.531.079 1.056-.498 1.173-1.287s-.219-1.493-.75-1.572-1.056.498-1.173 1.287.219 1.493.75 1.572z"/><path id="D" d="M42.689 20.011c.29.094.662-.253.83-.774s.069-1.02-.221-1.113-.662.253-.83.774-.069 1.02.221 1.113z"/><path id="E" d="M52.842 44.528l-.91.632c.948-.395 1.829-.912 2.508-1.78l.01-.196c-.511.474-1.045.925-1.608 1.343z"/><path id="F" d="M58.635 36.028l.49-1.042-.49 1.042z"/></defs></svg>