<svg xmlns="http://www.w3.org/2000/svg" width="172" height="36" viewBox="0 0 229 48" fill="none" xmlns:v="https://vecta.io/nano"><rect width="229" height="48" rx="8" fill="#5b00ea"/><path d="M27.95 26.389h14.087V33H19v-6.611h6.476l8.916-4.777H19V15h23.037v6.611L27.95 26.389z" fill="#fff"/><path d="M34.316 15H19v6.611h15.316V15zm7.72 11.389H28.021V33h14.014v-6.611z" fill="#ba8eff"/><path d="M58.456 30V18.16h3.248c3.616 0 5.856 1.872 5.856 5.872 0 3.984-2.24 5.968-5.728 5.968h-3.376zm2.368-1.904h.736c2.208 0 3.584-1.184 3.584-4.064 0-2.896-1.376-3.984-3.584-3.984h-.736v8.048zM69.878 30V18.16h7.264v1.968h-4.896v2.736h4.16v1.984h-4.16v3.168h5.072V30h-7.44zm9.844 0V18.16h3.888c2.624 0 4.64.912 4.64 3.712 0 2.704-2.032 3.92-4.576 3.92H82.09V30h-2.368zm2.368-6.08h1.424c1.632 0 2.416-.688 2.416-2.048 0-1.376-.864-1.84-2.496-1.84H82.09v3.888zM90.394 30V18.16h2.368v9.856h4.8V30h-7.168zm13.329.224c-3.136 0-5.296-2.352-5.296-6.192 0-3.856 2.16-6.096 5.296-6.096s5.296 2.256 5.296 6.096-2.16 6.192-5.296 6.192zm0-2.048c1.76 0 2.879-1.616 2.879-4.144 0-2.544-1.119-4.064-2.879-4.064s-2.88 1.52-2.88 4.064c0 2.528 1.12 4.144 2.88 4.144zM112.956 30v-4.336l-3.552-7.504h2.512l1.184 2.88 1.024 2.624h.064l1.056-2.624 1.184-2.88h2.464l-3.568 7.504V30h-2.368zm13.274 0v-9.872h-3.328V18.16h9.056v1.968h-3.36V30h-2.368zm11.852.224c-3.136 0-5.296-2.352-5.296-6.192 0-3.856 2.16-6.096 5.296-6.096s5.296 2.256 5.296 6.096-2.16 6.192-5.296 6.192zm0-2.048c1.76 0 2.88-1.616 2.88-4.144 0-2.544-1.12-4.064-2.88-4.064s-2.88 1.52-2.88 4.064c0 2.528 1.12 4.144 2.88 4.144zM148.547 30v-1.424l5.52-8.448h-4.992V18.16h7.888v1.408l-5.504 8.448h5.568V30h-8.48zm10.581 0V18.16h7.264v1.968h-4.896v2.736h4.16v1.984h-4.16v3.168h5.072V30h-7.44zm12.068-4.88h2.816l-.352-1.296-1.04-3.872h-.064l-1.008 3.872-.352 1.296zm4.16 4.88l-.832-3.04h-3.84l-.832 3.04h-2.4l3.792-11.84h2.784L177.836 30h-2.48zm3.866 0V18.16h3.92c2.432 0 4.288.704 4.288 2.912 0 1.088-.608 2.208-1.616 2.56v.08c1.28.304 2.224 1.2 2.224 2.8 0 2.384-1.984 3.488-4.592 3.488h-4.224zm2.368-7.024h1.376c1.504 0 2.16-.608 2.16-1.552 0-1.04-.704-1.456-2.128-1.456h-1.408v3.008zm0 5.2h1.648c1.616 0 2.496-.576 2.496-1.808 0-1.152-.864-1.632-2.496-1.632h-1.648v3.44zm13.066 2.048c-2.88 0-4.608-1.616-4.608-5.552V18.16h2.368v6.72c0 2.464.848 3.296 2.24 3.296 1.408 0 2.304-.832 2.304-3.296v-6.72h2.272v6.512c0 3.936-1.68 5.552-4.576 5.552zm9.793-10.192v3.616h1.536c1.52 0 2.352-.64 2.352-1.904 0-1.28-.832-1.712-2.352-1.712h-1.536zm6.72 9.968h-2.64l-2.432-4.48h-1.648V30h-2.368V18.16h4.128c2.48 0 4.448.864 4.448 3.584 0 1.776-.896 2.88-2.256 3.408L211.169 30z" fill="#fff"/></svg>