<svg xmlns="http://www.w3.org/2000/svg" width="147" height="32" viewBox="0 0 38.894 8.467" xmlns:v="https://vecta.io/nano"><defs><radialGradient cx="16.892" cy="35.946" fx="16.892" fy="35.946" r="33.306" gradientTransform="matrix(2.4335284,0,0,1.0711995,-15.575291,-23.065014)" id="A" gradientUnits="userSpaceOnUse"><stop stop-color="#fff" offset="0"/><stop stop-color="#d0e9ff" offset="1"/></radialGradient><path id="B" d="M-97.1-574.833q-.841 0-1.451-.371-.606-.375-.936-1.045-.326-.674-.326-1.568 0-.894.326-1.576.33-.686.917-1.068.591-.386 1.379-.386.455 0 .898.152.443.152.807.492.364.337.58.894.216.557.216 1.371v.379h-4.485v-.773h3.576q0-.492-.197-.879-.193-.386-.553-.61-.356-.223-.841-.223-.534 0-.924.265-.386.261-.595.682-.208.42-.208.902v.515q0 .659.227 1.117.231.455.64.693.409.235.951.235.352 0 .636-.098.288-.102.496-.303.208-.205.322-.508l.864.242q-.136.439-.458.773-.322.33-.795.515-.473.182-1.064.182z"/></defs><g fill-rule="evenodd" transform="matrix(.264583 0 0 .264583 41.700184 157.17971)"><rect stroke="#3da5ff" fill="url(#A)" x=".069" y=".628" width="146" height="31" rx="3.253" transform="translate(-157.176 -594.193)"/><g fill="#1a1a1a" stroke="#1a1a1a" stroke-width=".322"><path d="M-107.236-578.834q0 1.227-.443 2.121-.443.894-1.216 1.379-.773.485-1.765.485-.992 0-1.765-.485-.773-.485-1.216-1.379-.443-.894-.443-2.121 0-1.227.443-2.121.443-.894 1.216-1.379.773-.485 1.765-.485.992 0 1.765.485.773.485 1.216 1.379.443.894.443 2.121zm-.909 0q0-1.008-.337-1.701-.333-.693-.905-1.049-.568-.356-1.273-.356-.705 0-1.277.356-.568.356-.905 1.049-.333.693-.333 1.701 0 1.008.333 1.701.337.693.905 1.049.572.356 1.277.356.705 0 1.273-.356.572-.356.905-1.049.337-.693.337-1.701zm3.257.379v3.5h-.894v-5.818h.864v.909h.076q.205-.443.621-.712.417-.273 1.076-.273.591 0 1.034.242.443.239.689.727.246.485.246 1.227v3.697h-.894v-3.636q0-.686-.356-1.068-.356-.386-.977-.386-.428 0-.765.186-.333.186-.527.542-.193.356-.193.864z"/><use href="#B"/><path d="M-89.994-578.697v.833h-3.394v-.833zm7.94-1.591h-.939q-.083-.405-.292-.712-.205-.307-.5-.515-.292-.212-.648-.318-.356-.106-.742-.106-.705 0-1.277.356-.568.356-.905 1.049-.333.693-.333 1.701 0 1.008.333 1.701.337.693.905 1.049.572.356 1.277.356.386 0 .742-.106.356-.106.648-.314.295-.212.5-.519.208-.311.292-.712h.939q-.106.595-.386 1.064-.28.47-.697.799-.417.326-.936.496-.515.17-1.102.17-.992 0-1.765-.485-.773-.485-1.216-1.379-.443-.894-.443-2.121 0-1.227.443-2.121.443-.894 1.216-1.379.773-.485 1.765-.485.587 0 1.102.17.519.17.936.5.417.326.697.795.28.466.386 1.064zm2.288-2.424v7.758h-.894v-7.758zm1.636 7.757v-5.818h.894v5.818zm.455-6.788q-.261 0-.451-.178-.186-.178-.186-.428 0-.25.186-.428.189-.178.451-.178.261 0 .447.178.189.178.189.428 0 .25-.189.428-.186.178-.447.178zm4.439 6.91q-.818 0-1.409-.386-.591-.386-.909-1.064-.318-.678-.318-1.549 0-.886.326-1.564.33-.682.917-1.064.591-.386 1.379-.386.614 0 1.106.227.492.227.807.636.314.409.39.955h-.894q-.102-.398-.455-.705-.348-.311-.939-.311-.523 0-.917.273-.39.269-.61.761-.216.489-.216 1.148 0 .674.212 1.174.216.5.606.777.394.277.924.277.348 0 .633-.121.284-.121.481-.348.197-.227.28-.545h.894q-.076.515-.375.928-.295.409-.784.652-.485.239-1.129.239zm4.424-2.243l-.015-1.106h.182l2.545-2.591h1.106l-2.712 2.742h-.076zm-.833 2.121v-7.758h.894v7.758zm3.697 0l-2.273-2.879.636-.621 2.773 3.5zm7.621 0h-2.394v-7.758h2.5q1.129 0 1.932.466.803.462 1.231 1.33.428.864.428 2.068 0 1.212-.432 2.087-.432.871-1.258 1.341-.826.466-2.008.466zm-1.455-.833h1.394q.962 0 1.595-.371.633-.371.943-1.057.311-.686.311-1.633 0-.939-.307-1.617-.307-.682-.917-1.045-.61-.367-1.519-.367h-1.5z"/><use href="#B" x="46.364"/><path d="M-46.963-572.773v-8h.864v.924h.106q.098-.152.273-.386.178-.239.508-.424.333-.189.902-.189.735 0 1.295.367.561.367.875 1.042.314.674.314 1.591 0 .924-.314 1.602-.314.674-.871 1.045-.557.367-1.284.367-.561 0-.898-.186-.337-.189-.519-.428-.182-.242-.28-.402h-.076v3.076zm.879-5.091q0 .659.193 1.163.193.5.564.784.371.28.909.28.561 0 .936-.295.379-.299.568-.803.193-.508.193-1.129 0-.614-.189-1.106-.186-.496-.564-.784-.375-.292-.943-.292-.545 0-.917.277-.371.273-.561.765-.189.489-.189 1.14zm6.515-4.848v7.758h-.894v-7.758zm4 7.879q-.788 0-1.383-.375-.591-.375-.924-1.049-.33-.674-.33-1.576 0-.909.33-1.587.333-.678.924-1.053.595-.375 1.383-.375.788 0 1.379.375.595.375.924 1.053.333.678.333 1.587 0 .902-.333 1.576-.33.674-.924 1.049-.591.375-1.379.375zm0-.803q.598 0 .985-.307.386-.307.572-.807.186-.5.186-1.083 0-.583-.186-1.087-.186-.504-.572-.814-.386-.311-.985-.311-.598 0-.985.311-.386.311-.572.814-.186.504-.186 1.087 0 .583.186 1.083.186.5.572.807.386.307.985.307zm4.364 2.863q-.227 0-.405-.038-.178-.034-.246-.068l.227-.788q.326.083.576.061.25-.023.443-.223.197-.197.36-.64l.167-.455-2.152-5.848h.97l1.606 4.636h.061l1.606-4.636h.97l-2.47 6.667q-.167.451-.413.746-.246.299-.572.443-.322.144-.727.144z"/></g><path d="M-136.778-582.587c.692-2.48 2.792-4.283 5.275-4.283h.46c2.251 0 4.159 1.617 4.814 3.852a3.58 3.58 0 0 1 1.431.387 3.61 3.61 0 0 1 1.275 1.091c.334.46.556.992.648 1.554s.051 1.138-.119 1.682-.465 1.039-.86 1.446a3.6 3.6 0 0 1-1.416.899c-.535.183-1.106.237-1.666.157a3.59 3.59 0 0 1-1.557-.618.81.81 0 0 1-.066-.052c-.734.456-1.581.716-2.484.716h-7.008c-1.822 0-3.299-1.561-3.299-3.486s1.477-3.486 3.299-3.486h.3a3.42 3.42 0 0 1 .974.141zm5.275-2.746h.46c1.828 0 3.531 1.671 3.531 4.02s-1.703 4.02-3.531 4.02h-3.11v-1.633c0-1.149-.483-2.18-1.245-2.877.41-2.101 2.086-3.531 3.895-3.531zm-5.51 4.293c.009.011.042.025.094.042.708.341 1.24 1.106 1.24 2.072v1.632h-2.373c-.911 0-1.773-.803-1.773-1.949s.862-1.949 1.773-1.949h.3c.255 0 .505.053.739.151zm9.663 3.522c.197.098.409.164.628.196.323.046.652.015.961-.091s.588-.283.816-.518.398-.52.496-.834.121-.645.068-.97a2.1 2.1 0 0 0-.374-.896 2.08 2.08 0 0 0-.735-.629c-.159-.081-.326-.141-.499-.179l.001.126c0 1.467-.517 2.801-1.362 3.794z" fill="#3da5ff"/><path d="M-137.918-572.701h-.419q-.037-.181-.13-.318-.091-.137-.223-.23-.13-.095-.289-.142-.159-.047-.331-.047-.314 0-.569.159-.253.159-.404.468-.149.309-.149.758 0 .449.149.758.15.309.404.468.255.159.569.159.172 0 .331-.047.159-.047.289-.14.132-.095.223-.231.093-.139.13-.318h.419q-.047.265-.172.475-.125.209-.311.356-.186.145-.417.221-.23.076-.492.076-.443 0-.787-.216-.345-.216-.542-.615-.198-.399-.198-.946 0-.547.198-.946.198-.399.542-.615.345-.216.787-.216.262 0 .492.076.231.076.417.223.186.145.311.355.125.208.172.475zm1.02-1.081v3.459h-.399v-3.459zm1.784 3.513q-.351 0-.617-.167-.263-.167-.412-.468-.147-.301-.147-.703 0-.405.147-.708.149-.302.412-.47.265-.167.617-.167.351 0 .615.167.265.167.412.47.149.302.149.708 0 .402-.149.703-.147.301-.412.468-.263.167-.615.167zm0-.358q.267 0 .439-.137.172-.137.255-.36.083-.223.083-.483 0-.26-.083-.485-.083-.225-.255-.363-.172-.139-.439-.139-.267 0-.439.139-.172.139-.255.363-.083.225-.083.485 0 .26.083.483.083.223.255.36.172.137.439.137zm3.419-.757v-1.534h.399v2.594h-.399v-.439h-.027q-.091.198-.284.336-.193.137-.486.137-.243 0-.432-.106-.189-.108-.297-.324-.108-.218-.108-.549v-1.648h.399v1.621q0 .284.159.453.16.169.409.169.149 0 .302-.076.155-.076.26-.233.106-.157.106-.4zm2.107 1.115q-.324 0-.573-.164-.248-.166-.388-.466-.14-.302-.14-.714 0-.409.14-.709.14-.301.39-.464.25-.164.578-.164.253 0 .4.085.149.083.226.189.079.105.123.172h.034v-1.277h.399v3.459h-.385v-.399h-.047q-.044.071-.125.179-.081.106-.231.191-.15.083-.4.083zm.054-.358q.24 0 .405-.125.166-.127.252-.35.086-.225.086-.519 0-.291-.084-.508-.084-.22-.25-.341-.166-.123-.409-.123-.253 0-.422.13-.167.128-.252.35-.083.22-.083.493 0 .277.084.503.086.225.253.358.169.132.419.132zm1.845.304v-.304l1.473-1.892v-.027h-1.426v-.372h1.939v.318l-1.432 1.878v.027h1.48v.372zm2.905.973q-.101 0-.181-.017-.079-.015-.11-.03l.101-.351q.145.037.257.027.111-.01.198-.1.088-.088.16-.285l.074-.203-.959-2.608h.432l.716 2.067h.027l.716-2.067h.432l-1.101 2.973q-.074.201-.184.333-.11.133-.255.198-.144.064-.324.064z" fill="#1a1a1a" stroke="#1a1a1a" stroke-width=".18"/></g></svg>