<svg xmlns="http://www.w3.org/2000/svg" width="170.237" height="37.251" viewBox="0 0 45.042 9.856" xmlns:v="https://vecta.io/nano"><style><![CDATA[.B{writing-mode:lr-tb}.C{font-weight:500}.D{font-family:IBM Plex Sans}.E{word-spacing:0px}.F{fill:#000}.G{font-weight:600}.H{font-size:8.708px}.I{font-family:Inter}.J{font-family:Fira Sans}]]></style><path d="M4.223 0A4.22 4.22 0 0 0 0 4.222a4.22 4.22 0 0 0 .491 1.969c.65-1.386 2.06-2.344 3.732-2.344s3.082.958 3.732 2.344a4.22 4.22 0 0 0 .49-1.969A4.22 4.22 0 0 0 4.223 0z" fill="#fc0"/><text y="30.293" x="23.134" xml:space="preserve" letter-spacing="0" class="B C D E F H"><tspan y="8.757" x="10.696" class="B G I">listmonk</tspan></text><circle r="3.187" cy="6.112" cx="4.228" fill="none" stroke="#7f2aff" stroke-width="1.113"/><path d="M4.228 3.277c-1.76 0-3.187 1.718-3.187 3.837a4.59 4.59 0 0 0 .073.798c.317-1.766 1.613-3.026 3.114-3.027s2.801 1.269 3.114 3.039a4.59 4.59 0 0 0 .073-.81c0-2.119-1.427-3.837-3.187-3.837z" fill="#7f2aff"/><path d="M127.508-74.863c-.576 0-1.128.218-1.535.607s-.636.916-.636 1.465c.001.337.087.668.252.966.334-.68 1.059-1.15 1.918-1.15s1.584.47 1.918 1.15c.165-.298.251-.629.252-.966 0-.549-.229-1.076-.636-1.465s-.959-.607-1.535-.607z" fill="#fc0"/><text y="-46.772" x="116.916" xml:space="preserve" letter-spacing="0" class="B C D E F H"><tspan y="-68.308" x="104.478" class="B G I">listmonk</tspan></text><text y="-23.851" x="127.877" xml:space="preserve" font-size="6.825" letter-spacing="0" class="B C D E F"><tspan y="-45.387" x="115.439" class="B G I">listmonk</tspan></text><circle cx="190.997" cy="-43.39" r="3.809" fill="#fc0"/><g fill="#7f2aff"><use href="#B"/><use href="#B" y="1.954"/><use href="#B" y="3.915"/></g><ellipse cx="126.782" cy="-95.808" rx="2.128" ry="1.983" fill="#fc0"/><text y="-71.649" x="115.97" xml:space="preserve" letter-spacing="0" class="B C D E F H"><tspan y="-93.185" x="103.532" class="B G I">listmonk</tspan></text><text y="-18.771" x="210.124" xml:space="preserve" letter-spacing="-.053" class="B C D E F H"><tspan y="-40.307" x="197.686" class="B G J">listmonk</tspan></text><circle cx="191.306" cy="-22.72" r="3.149" fill="none" stroke="#fc0" stroke-width="1.74"/><text y="2.243" x="210.388" xml:space="preserve" letter-spacing="-.053" class="B C D E F H"><tspan y="-19.293" x="197.95" class="B G J">listmonk</tspan></text><defs ><path id="B" d="M108.688-50.333h4.653v1.106h-4.653z"/></defs></svg>