<svg xmlns="http://www.w3.org/2000/svg" width="64" height="64" viewBox="0 0 6.554 6.553" preserveAspectRatio="xMidYMid" fill="#b5010f" xmlns:v="https://vecta.io/nano"><path d="M6.479.109c.347.353-.616 1.903-.779 2.068s-.576.013-.924-.34-.497-.773-.334-.938S6.131-.244 6.479.109M1.607.482C1.077.176.322-.164.082.08S.186 1.111.49 1.65A3.29 3.29 0 0 1 1.607.482"/><path d="M5.949 2.055c.049.168.04.307-.039.387-.185.188-.685-.012-1.135-.448l-.093-.09c-.163-.166-.29-.342-.371-.504-.158-.287-.197-.541-.078-.663.065-.066.169-.084.296-.061l.287-.173A3.1 3.1 0 0 0 3.36.145C1.619.145.207 1.579.207 3.348S1.619 6.55 3.36 6.55s3.154-1.434 3.154-3.203c0-.571-.148-1.107-.406-1.571l-.159.279"/></svg>