<svg xmlns="http://www.w3.org/2000/svg" width="64" height="64" xmlns:v="https://vecta.io/nano"><path d="M13.15 10.099s-.187-.426-.714-.141c-.439.238-.211.678-.211.678l8.242 17.061h1.999L13.15 10.099m23.397 44.195l-6.236-11.78h-2.685l6.264 12.964s.631 1.22 1.986.546.672-1.73.672-1.73" fill="#777"/><g fill="#f26711"><path d="M59.53 8.93c-7.815-3.671-14.885-1.918-22.793.398-7.961 2.331-15.042 3.592-22.997.415l2.168 3.788 2.39 4.179 2.167 3.788c6.334 1.752 11.579-.52 17.207-3.274 6.759-3.306 12.864-6.279 20.586-4.556-6.526-3.199-12.442-2.406-19.266-.594 6.681-3.329 12.97-5.918 20.538-4.144M13.253 36.162l.04 3.165c-.14.235-.702.452-1.184.452-.02 0-.683-1.003-1.626-2.143l-4.638-5.622-2.188-2.516c-.1.196-.1.53-.1 1.258v3.814c0 1.592.08 3.066.301 3.597.181.412.642.53 1.164.628l.562.079c.16.158.12.571 0 .687l-2.69-.059-2.248.059c-.121-.117-.161-.53 0-.687l.341-.059c.542-.118.923-.236 1.104-.648.201-.531.281-2.005.281-3.597v-4.993c0-1.081 0-1.395-.141-1.67-.141-.334-.442-.531-1.145-.668l-.562-.079c-.141-.157-.121-.629.08-.688l2.771.059 1.686-.059c.201.884 1.506 2.378 3.313 4.482L10.06 32.9l1.928 2.162c.08-.197.08-.532.08-.885v-2.713c0-1.592-.08-3.066-.301-3.598-.181-.412-.622-.53-1.164-.628l-.542-.079c-.16-.157-.12-.57 0-.688l2.691.059L15 26.471c.121.118.16.53 0 .688l-.361.059c-.522.118-.904.236-1.084.649-.22.53-.301 2.005-.301 3.597v4.698m4.769-2.182c.282 0 .602-.04.824-.177.1-.06.14-.257.14-.452 0-.649-.381-1.082-1.064-1.082-.843 0-1.566.786-1.566 1.415 0 .276.281.295.923.295zm-1.325.865c-.462 0-.502.039-.502.354 0 1.475.964 2.909 2.831 2.909.562 0 1.325-.117 1.867-1.022a.45.45 0 0 1 .522.452c-.823 1.671-2.309 2.242-3.514 2.242-2.71 0-4.176-1.868-4.176-4.011 0-2.477 1.827-4.403 4.337-4.403 2.088 0 3.212 1.317 3.212 2.831 0 .373-.1.649-.722.649h-3.855"/><path d="M25.234 32.702c-.261 0-.281.019-.281.452v2.948c0 1.101 0 2.32 1.405 2.32.281 0 .602-.137.843-.295.2.058.321.275.28.511-.562.589-1.646 1.14-2.891 1.14-1.667 0-2.249-.944-2.249-2.242v-4.382c0-.413-.02-.452-.382-.452h-.622c-.221-.08-.281-.472-.121-.61.622-.215 1.184-.57 1.667-.884.361-.255.863-.668 1.486-1.534.14-.078.502-.058.602.099v1.474c0 .373.02.393.381.393h1.787c.1.078.16.197.16.374 0 .216-.06.569-.261.688h-1.807"/></g><path d="M32.485 36.181c0 1.533.201 2.496 1.767 2.496 1.486 0 2.268-1.12 2.268-2.713 0-1.71-1.004-2.909-2.931-2.909-1.105 0-1.105.019-1.105.806v2.319zm0-4.541c0 .512.02.55 1.064.55 1.727 0 2.369-1.08 2.369-2.26 0-1.71-1.084-2.555-2.47-2.555-.943 0-.964.158-.964 1.022zm-2.771-1.907c0-1.985-.04-2.201-.883-2.299l-.542-.079c-.181-.098-.221-.688.08-.707l5-.177c1.927 0 3.213.217 4.095.728.863.511 1.385 1.337 1.385 2.496 0 1.652-1.425 2.3-2.047 2.458-.201.038-.402.118-.402.216 0 .059.101.117.282.157 1.586.334 2.931 1.356 2.951 3.262.02 1.809-1.084 2.87-2.349 3.303s-2.771.491-3.996.491c-.723 0-1.486-.079-2.068-.079l-3.112.059c-.16-.118-.16-.629 0-.687l.582-.118c.903-.177 1.024-.314 1.024-2.084v-6.939m14.297 10.083c-1.847 0-2.991-.511-3.413-.747-.381-.432-.642-1.848-.642-3.184.14-.255.602-.275.763-.059.401 1.278 1.746 3.086 3.453 3.086 1.485 0 2.168-1.002 2.168-1.985 0-1.592-1.526-2.536-2.731-3.125-1.446-.708-3.012-1.887-3.031-3.834 0-2.221 1.747-3.755 4.658-3.755.662 0 1.485.079 2.289.315a5.02 5.02 0 0 0 .682.157c.16.432.361 1.494.361 2.811-.101.235-.603.255-.783.06-.341-1.003-1.205-2.438-2.651-2.438-1.325 0-2.047.846-2.047 1.828 0 .905.822 1.73 1.826 2.241l1.326.689c1.245.649 2.831 1.788 2.831 3.95 0 2.418-2.029 3.99-5.06 3.99m9.471-3.873c0 1.082.04 1.789.401 2.202.362.393.944.57 1.667.57 3.473 0 4.658-3.026 4.658-5.7 0-3.538-1.907-5.641-5.542-5.641-.541 0-.923.098-1.044.256s-.141.53-.141 1.139v7.174zm-2.871-6.231c0-1.867-.04-2.241-.964-2.339l-.381-.039c-.2-.098-.2-.669.04-.689l5.381-.177c1.646 0 3.292.158 4.678.649a5.96 5.96 0 0 1 4.075 5.7c0 2.634-1.285 4.758-3.593 5.878-1.365.669-3.012.923-5.08.923-.943 0-1.948-.118-2.67-.118l-3.132.059c-.161-.118-.161-.589 0-.687l.622-.098c.903-.157 1.024-.295 1.024-2.103v-6.958" fill="#777"/></svg>