<svg xmlns="http://www.w3.org/2000/svg" width="64" height="64" xmlns:v="https://vecta.io/nano"><style><![CDATA[.E{mix-blend-mode:multiply}.A{isolation:isolate}]]></style><g class="A"><path d="M23.006 52.525c.782-.087 3.042.348 2.884-2-.017-.252-.091-.501-.208-.749-.531-1.115-1.996-2.209-3.635-3.457l-1.122-.867c-1.048-.828-2.096-1.731-2.96-2.754-2.868-3.395-.782-6.863-.782-6.863-.521 4.781 1.826 6.084 1.826 6.084-.782-2.868 1.739-9.475 4.172-13.131 2.019-3.033 2.187-6.649 2.186-7.797-.143-.236-.265-.484-.364-.743a3.84 3.84 0 0 1-.518-.931 2.23 2.23 0 0 1-.112-.415 2.27 2.27 0 0 1-.028-.295l-.001-.014c-.007-1.023.849-1.765 1.699-2.358-.501-.044-1.038-.279-1.441-.947-1.013-1.681-.508-6.229 2.1-5.969s2.22 5.003 2.22 5.003c.626-.309 1.127-.483 1.127-.483.439-.035.781-.033 1.095.012h0s-.356-5.011 3.381-5.011 3.135 7.002 2.002 7.848h0c.609.433.925.855 1.028 1.264a1.27 1.27 0 0 1 .036.29c.112.054.17.143.17.35 0 .396-.186.883-.48 1.392-.069 1.568.365 4.647 4.242 10.632 2.472 3.817 3.187 6.986 3.283 9.203a4.77 4.77 0 0 1 1.218-.138c1.134-2.523-.937-8.415-.937-8.415 2.27 2.507 2.296 7.611 2.279 8.6a6.31 6.31 0 0 1 2.589 1.398C51.737 42.873 51 43.935 51 43.935h0c.649.018 1.286.19 1.936.636.033.023.06.049.093.073.437-2.066.611-4.07.548-5.785-.232-6.388-4.752-10.213-6.839-12.879s-4.289-4.404-4.404-12.865S38.622.136 32.131.252s-10.13 3.326-9.272 14.567c.58 10.547-3.825 12.206-6.722 16.147-1.421 1.933-3.539 6.824-3.372 12.277.365-.15.861-.251 1.546-.281 3.796-.164 4.26 3.738 8.693 9.562zM33.659 2.136s-6.257 1.226-8.518 4.016c0 0 1.464-5.106 8.518-4.016zM18.948 29.299c3.534-3.253 4.006-7.712 4.006-7.712.914 3.112-1.509 7.936-3.475 8.954-1.387.719-4.097 3.702-4.097 3.702s.661-2.269 3.567-4.945zm20.34 27.359l.062-2.223c-6.656 3.969-12.099 1.972-14.816.371 1.327 2.317 1.456 3.86 1.308 4.767 2.788.267 8.337.59 13.489-.349a35.98 35.98 0 0 1-.044-2.568z" fill="#202121"/><path d="M25.202 12.552c.151-.891 2.015-1.681 2.419.057.3 1.29.194 2.06.094 2.428.393-.283.823-.523 1.207-.713 0 0 .387-4.742-2.22-5.003s-3.113 4.288-2.1 5.969c.403.668.94.902 1.441.947l.588-.397c-1.442-.341-1.614-2.41-1.427-3.287zm8.018-.753c.261-.391 1.695-1.174 2.216.695s-.599 3.204-.604 3.21l1.039.582a6.67 6.67 0 0 1 .653.406h0c1.133-.846 1.736-7.848-2.002-7.848s-3.381 5.01-3.381 5.01h0c.563.082 1.038.311 1.803.752-.507-1.551.043-2.456.275-2.806z" fill="#fff"/><path d="M35.437 12.494c-.521-1.869-1.956-1.086-2.216-.695-.233.35-.781 1.255-.275 2.806l1.887 1.099c.005-.006 1.125-1.344.604-3.21zm-2.128-.2s1.007-1.314 1.906.174c0 0-.919-.5-1.906-.174z" fill="#010101"/><use href="#B" fill="#202121"/><use href="#B" class="E" style="mix-blend-mode:multiply" fill="#d8d8d8"/><use href="#C" fill="#202121"/><use href="#C" class="E" style="mix-blend-mode:multiply" fill="#d8d8d8"/><use href="#D" fill="#fff"/><use href="#D" class="E" style="mix-blend-mode:multiply" fill="#d8d8d8"/><path d="M27.621 12.609c-.404-1.739-2.268-.949-2.419-.057-.186.878-.014 2.947 1.427 3.287l.722-.52.362-.282c.1-.368.206-1.137-.094-2.428zm-2.132-.101s1.007-1.314 1.906.174c0 0-.919-.5-1.906-.174z" fill="#010101"/><path d="M43.609 40.964s-.067 1 .18 2.101c.25.08.454.187.585.25 1.26.609 1.521 1.782 3.433 1.26.997-.272 1.899-.565 2.769-.625h0c.944-1.769-3.923-5.332-6.967-2.985z" fill="#202121"/><path d="M25.489 12.509c.988-.327 1.906.174 1.906.174-.899-1.488-1.906-.174-1.906-.174zm7.82-.215c.987-.327 1.906.174 1.906.174-.899-1.488-1.906-.174-1.906-.174z" fill="#fff"/><path d="M25.408 19.421l.1-.131c.025.019 2.504 1.886 4.802 1.664 2.327-.225 5.332-1.544 6.222-2.324l.108.124c.616-.424.929-.742.912-.799-.103-.409-.419-.831-1.028-1.264a6.67 6.67 0 0 0-.653-.406l-1.039-.582-1.887-1.099c-.765-.441-1.24-.67-1.803-.751-.314-.046-.655-.047-1.095-.012 0 0-.499.174-1.127.483-.384.189-.814.43-1.207.713l-.362.282c-.189.162-.444.335-.722.52l-.588.397c-.85.594-1.706 1.335-1.699 2.359.004.005.404.374 1.065.826z" fill="#fece33"/><path d="M29.379 23.057c1.462.655 3.189-.174 5.015-1.477.989-.707 2.463-1.588 2.996-2.579.131-.245.204-.496.2-.753-.002-.096-.011-.192-.036-.29.017.056-.297.374-.912.799l.11.126c-.911.799-3.933 2.166-6.409 2.404l-.424.02c-2.284 0-4.51-1.675-4.609-1.751l.101-.133c-.662-.453-1.061-.82-1.065-.826h0c.003.105.012.204.029.308.023.134.059.272.112.415.126.336.306.644.518.931.111.151.23.297.359.435 1.158 1.233 2.961 1.969 4.017 2.372z" fill="#e8ab24"/><path d="M24.533 54.806c-.395-.691-.893-1.447-1.527-2.281-4.433-5.824-4.897-9.726-8.693-9.562-.685.029-1.182.131-1.546.281-1.624.668-.606 2.313-1.67 3.022-.608.405-1.403.509-2.194.67 0 0-2.413 1.329-1.076 3.647s1.244 2.334.778 5.961 17.235 3.03 17.235 3.03h0c.148-.907.019-2.45-1.308-4.767zm-9.592-10.79c2.378.887 2.924 2.922 2.924 2.922s-3.759-3.979-5.109-.556c0 0-.194-3.254 2.185-2.366z" fill="#fece33"/><path d="M8.606 56.543c.467-3.626.56-3.644-.778-5.961s1.076-3.647 1.076-3.647c-.907.185-1.809.446-2.413 1.329-1.13 1.651-.521 3.216 0 5.128s-.652 2.173-1.26 3.433c-.417.866-2.745 4.838 13.344 5.086 6.607.101 6.671-1.224 6.867-1.304 0 0 .284-.323.401-1.036h0s-17.702.596-17.235-3.03z" fill="#e8ab24"/><path d="M46.138 60.216c4.051-3.045 12.436-6.596 9.323-10.607a1.13 1.13 0 0 1-.528-.428c-.852-1.278-.374-3.387-1.907-4.534-.031-.024-.059-.05-.093-.073-.65-.445-1.287-.618-1.937-.636-.14-.004-.282 0-.423.009-.87.06-1.772.354-2.769.625-1.912.521-2.173-.652-3.433-1.26-.131-.063-.334-.17-.585-.25-1.292-.414-3.857-.11-4.407 10.683l-.032.687-.062 2.223c-.016 1 .003 1.845.044 2.568.072 1.279.216 2.165.384 2.78.692.24 3.047.749 6.424-1.789zm-2.921-15.313c2.034-.389 2.75 1.633 2.75 1.633s-3.148-2.335-4.916 4.201c0 0 .133-5.447 2.167-5.836z" fill="#fece33"/><path d="M55.461 49.609c3.113 4.011-5.272 7.562-9.323 10.607-3.376 2.538-5.732 2.029-6.424 1.789.363 1.334.83 1.407.876 1.52 0 0 2.26 2 8.084-2.434 1.457-1.109 2.794-1.97 3.976-2.696 3.546-2.178 5.709-3.15 5.586-5.997-.135-3.121-1.743-2.363-2.776-2.789z" fill="#e8ab24"/><path d="M33.659 2.136c-7.054-1.089-8.518 4.016-8.518 4.016 2.261-2.79 8.518-4.016 8.518-4.016zm-14.18 28.407c1.965-1.019 4.389-5.842 3.475-8.954 0 0-.47 4.457-4.006 7.712-2.906 2.675-3.567 4.945-3.567 4.945s2.71-2.983 4.097-3.702z" fill="#4a4a4c"/><path d="M45.966 46.537s-.715-2.023-2.75-1.633-2.167 5.836-2.167 5.836c1.769-6.536 4.916-4.201 4.916-4.201zm-28.102.4s-.544-2.033-2.924-2.922-2.185 2.366-2.185 2.366c1.349-3.423 5.109.556 5.109.556z" fill="#fbdd99"/><path d="M30.31 20.955c-2.297.223-4.777-1.645-4.802-1.664l-.1.131-.101.133c.099.076 2.325 1.751 4.609 1.751l.424-.02c2.476-.238 5.498-1.605 6.409-2.404l-.11-.126-.108-.124c-.89.78-3.894 2.1-6.222 2.324z" fill="#202121"/><path d="M49.954 41.267c-.725-.654-1.63-1.146-2.589-1.398.018-.989-.008-6.093-2.279-8.6 0 0 2.072 5.892.937 8.415-.41-.005-.819.038-1.218.138-.096-2.217-.811-5.385-3.283-9.203-3.877-5.986-4.311-9.064-4.242-10.632-.662 1.149-1.871 2.413-2.722 3.02-1.826 1.304-3.782 2.341-5.128 1.477-1.136-.727-3.068-1.838-4.064-3.493.001 1.148-.166 4.764-2.186 7.797-2.434 3.656-4.955 10.262-4.172 13.131 0 0-2.347-1.304-1.826-6.084 0 0-2.086 3.467.782 6.863.865 1.023 1.913 1.926 2.96 2.754l1.122.867c1.64 1.249 3.105 2.343 3.635 3.457.118.248.191.497.208.749.159 2.347-2.102 1.912-2.884 2 .634.833 1.131 1.59 1.527 2.281 2.717 1.6 8.16 3.598 14.816-.371l.032-.687c.55-10.795 3.114-11.098 4.407-10.683-.247-1.1-.18-2.101-.18-2.101 3.042-2.347 7.91 1.217 6.967 2.985.141-.01.283-.014.423-.009h.001s.737-1.063-1.045-2.672z" fill="#fff"/><path d="M29.893 14.873c1.292.097 1.07 4.724.554 4.919-1.238.471-5.635-1.367-4.888-2.11.559-.556 3.397-2.879 4.333-2.809z" fill="#ffe02c"/></g><defs ><path id="B" d="M37.391 18.999c-.033.232-.092.551-.111.987.293-.509.48-.995.48-1.392 0-.207-.057-.294-.17-.35.004.257-.069.509-.2.753h0z"/><path id="C" d="M25.002 20.249c.099.259.222.507.364.743l-.004-.308a4.74 4.74 0 0 1-.359-.435z"/><path id="D" d="M29.429 24.485c1.347.864 3.303-.174 5.128-1.477.851-.608 2.059-1.872 2.722-3.02.019-.436.077-.755.111-.987h0c-.533.993-2.006 1.873-2.996 2.579-1.826 1.304-3.553 2.133-5.015 1.477-1.057-.404-2.86-1.139-4.017-2.372l.004.308c.996 1.654 2.928 2.765 4.064 3.493z"/></defs></svg>