<?xml version="1.0" encoding="UTF-8" standalone="no"?>
<!-- Created with Inkscape (http://www.inkscape.org/) -->

<svg
   width="64"
   height="64"
   id="svg3295"
   version="1.1"
   inkscape:version="1.4.2 (ebf0e940d0, 2025-05-08)"
   sodipodi:docname="logo-netbsd.svg"
   xmlns:inkscape="http://www.inkscape.org/namespaces/inkscape"
   xmlns:sodipodi="http://sodipodi.sourceforge.net/DTD/sodipodi-0.dtd"
   xmlns="http://www.w3.org/2000/svg"
   xmlns:svg="http://www.w3.org/2000/svg"
   xmlns:rdf="http://www.w3.org/1999/02/22-rdf-syntax-ns#"
   xmlns:cc="http://creativecommons.org/ns#"
   xmlns:dc="http://purl.org/dc/elements/1.1/">
  <defs
     id="defs3297">
    <clipPath
       id="clipPath5208"
       clipPathUnits="userSpaceOnUse">
      <path
         id="path5210"
         d="m 259.02,672 h 93.96 v 90 h -93.96 z"
         inkscape:connector-curvature="0" />
    </clipPath>
    <clipPath
       id="clipPath5168"
       clipPathUnits="userSpaceOnUse">
      <path
         id="path5170"
         d="m 303.707,751.075 c -0.385,-0.477 -0.979,-0.703 -1.773,-0.457 v 0 c -0.83,0.256 -1.84,0.797 -2.425,1.19 v 0 c 0.492,-2.044 1.17,-4.564 1.716,-6.735 v 0 c 0.134,-0.535 0.356,-1.196 -0.179,-1.328 v 0 c -0.64,-0.161 -1.18,0.409 -1.479,0.687 v 0 c -1.062,0.992 -2.134,2.125 -3.193,2.887 v 0 c -0.066,-0.399 -0.298,-0.868 -0.532,-1.239 v 0 c -0.19,-0.299 -0.545,-0.668 -1.006,-0.731 v 0 c -0.611,-0.086 -1.63,0.116 -2.484,0.227 v 0 c -0.847,0.113 -1.661,0.272 -2.307,0.322 v 0 c 0.368,-0.86 0.833,-2.091 1.243,-3.115 v 0 c 0.156,-0.395 0.391,-0.77 0.355,-1.054 v 0 c -0.116,-0.876 -1.544,-1.096 -2.425,-1.239 v 0 c 0.121,-0.073 0.244,-0.146 0.366,-0.218 v 0 c 4.347,1.13 9.975,2.091 16.548,2.092 v 0 c 6.575,-10e-4 12.203,-0.962 16.549,-2.092 v 0 c 0.123,0.072 0.245,0.145 0.368,0.218 v 0 c -0.883,0.143 -2.312,0.363 -2.427,1.239 v 0 c -0.037,0.284 0.199,0.659 0.355,1.054 v 0 c 0.409,1.024 0.875,2.255 1.243,3.115 v 0 c -0.645,-0.05 -1.46,-0.209 -2.307,-0.322 v 0 c -0.853,-0.111 -1.874,-0.313 -2.485,-0.227 v 0 c -0.461,0.063 -0.815,0.432 -1.003,0.731 v 0 c -0.236,0.371 -0.467,0.84 -0.535,1.239 v 0 c -1.058,-0.762 -2.13,-1.895 -3.192,-2.887 v 0 c -0.299,-0.278 -0.839,-0.848 -1.48,-0.687 v 0 c -0.534,0.132 -0.312,0.793 -0.177,1.328 v 0 c 0.545,2.171 1.222,4.691 1.714,6.735 v 0 c -0.584,-0.393 -1.594,-0.934 -2.424,-1.19 v 0 c -0.795,-0.246 -1.389,-0.02 -1.773,0.457 v 0 c -0.22,0.274 -1.912,3.664 -2.426,4.491 v 0 c -0.515,-0.827 -2.204,-4.217 -2.425,-4.491"
         inkscape:connector-curvature="0" />
    </clipPath>
    <clipPath
       id="clipPath5156"
       clipPathUnits="userSpaceOnUse">
      <path
         id="path5158"
         d="m 283.242,759.362 v -21.128 c 4.31,1.679 12.394,4.129 22.89,4.13 v 0 c 10.406,-10e-4 18.44,-2.407 22.776,-4.086 v 0 21.084 z"
         inkscape:connector-curvature="0" />
    </clipPath>
    <clipPath
       id="clipPath5144"
       clipPathUnits="userSpaceOnUse">
      <path
         id="path5146"
         d="m 259.02,672 h 93.96 v 90 h -93.96 z"
         inkscape:connector-curvature="0" />
    </clipPath>
    <clipPath
       id="clipPath4074"
       clipPathUnits="userSpaceOnUse">
      <path
         id="path4076"
         d="M 0,0 H 792 V 612 H 0 Z"
         inkscape:connector-curvature="0" />
    </clipPath>
    <clipPath
       id="clipPath4070"
       clipPathUnits="userSpaceOnUse">
      <path
         id="path4072"
         d="M 0,0 H 792 V 612 H 0 Z"
         inkscape:connector-curvature="0" />
    </clipPath>
    <clipPath
       id="clipPath4066"
       clipPathUnits="userSpaceOnUse">
      <path
         id="path4068"
         d="m 332.598,243.597 c -2.835,-5.629 -1.151,-9.057 -1.151,-9.057 v 0 c 6.56,-9.318 17.462,-1.405 17.462,-1.405 v 0 h 83.893 c 0,0 10.903,-7.913 17.462,1.405 v 0 c 0,0 1.684,3.428 -1.15,9.057 v 0 L 390.839,345.59 Z"
         inkscape:connector-curvature="0" />
    </clipPath>
    <clipPath
       id="clipPath4062"
       clipPathUnits="userSpaceOnUse">
      <path
         id="path4064"
         d="M 0,0 H 792 V 612 H 0 Z"
         inkscape:connector-curvature="0" />
    </clipPath>
    <clipPath
       id="clipPath4058"
       clipPathUnits="userSpaceOnUse">
      <path
         id="path4060"
         d="M 0,0 H 792 V 612 H 0 Z"
         inkscape:connector-curvature="0" />
    </clipPath>
    <clipPath
       id="clipPath4054"
       clipPathUnits="userSpaceOnUse">
      <path
         id="path4056"
         d="M 453.785,320.137 H 328.907 c -0.76,0 -1.615,-0.151 -2.566,-0.454 v 0 c -0.949,-0.306 -1.73,-0.683 -2.335,-1.142 v 0 l -6.155,-5.362 c -0.607,-0.381 -1.122,-1.008 -1.536,-1.883 v 0 c -0.42,-0.873 -0.629,-1.691 -0.629,-2.448 v 0 -7.189 c 0,-0.765 0.209,-1.562 0.629,-2.396 v 0 c 0.414,-0.837 0.929,-1.484 1.536,-1.94 v 0 l 6.155,-5.359 c 0.605,-0.382 1.386,-0.743 2.335,-1.083 v 0 c 0.951,-0.347 1.806,-0.518 2.566,-0.518 v 0 h 7.975 9.996 l 113.197,12.587 c 0,0 12.042,4.874 5.136,14.271 v 0 c 0,0 -2.74,2.916 -11.39,2.916 v 0 c -0.012,0 -0.023,0 -0.036,0"
         inkscape:connector-curvature="0" />
    </clipPath>
    <clipPath
       id="clipPath4050"
       clipPathUnits="userSpaceOnUse">
      <path
         id="path4052"
         d="M 0,0 H 792 V 612 H 0 Z"
         inkscape:connector-curvature="0" />
    </clipPath>
    <clipPath
       id="clipPath4046"
       clipPathUnits="userSpaceOnUse">
      <path
         id="path4048"
         d="m 444.482,289.331 h -11.643 l -111.55,-12.586 c 0,0 -12.046,-4.875 -5.136,-14.272 v 0 c 0,0 2.747,-2.929 11.424,-2.919 v 0 h 124.879 c 0.758,0 1.611,0.152 2.561,0.458 v 0 c 0.953,0.306 1.733,0.683 2.34,1.141 v 0 l 6.151,5.361 c 0.611,0.384 1.122,1.007 1.539,1.881 v 0 c 0.421,0.878 0.629,1.694 0.629,2.455 v 0 7.185 c 0,0.765 -0.208,1.561 -0.629,2.399 v 0 c -0.417,0.837 -0.928,1.481 -1.539,1.938 v 0 l -6.151,5.362 c -0.607,0.381 -1.387,0.739 -2.34,1.082 v 0 c -0.95,0.342 -1.803,0.515 -2.561,0.515 v 0 z"
         inkscape:connector-curvature="0" />
    </clipPath>
    <clipPath
       id="clipPath4042"
       clipPathUnits="userSpaceOnUse">
      <path
         id="path4044"
         d="M 0,0 H 792 V 612 H 0 Z"
         inkscape:connector-curvature="0" />
    </clipPath>
    <clipPath
       id="clipPath4038"
       clipPathUnits="userSpaceOnUse">
      <path
         id="path4040"
         d="M 0,0 H 792 V 612 H 0 Z"
         inkscape:connector-curvature="0" />
    </clipPath>
    <clipPath
       id="clipPath4034"
       clipPathUnits="userSpaceOnUse">
      <path
         id="path4036"
         d="m 253.717,286.27 c 0,-75.678 61.345,-137.026 137.024,-137.026 v 0 c 75.675,0 137.023,61.348 137.023,137.026 v 0 c 0,75.675 -61.348,137.021 -137.023,137.021 v 0 c -75.679,0 -137.024,-61.346 -137.024,-137.021"
         inkscape:connector-curvature="0" />
    </clipPath>
    <clipPath
       clipPathUnits="userSpaceOnUse"
       id="clipPath2999">
      <path
         inkscape:connector-curvature="0"
         d="M 461.9,268.95 H 612 V 792 H 461.9 Z"
         id="path3001" />
    </clipPath>
    <clipPath
       clipPathUnits="userSpaceOnUse"
       id="clipPath3013">
      <path
         inkscape:connector-curvature="0"
         d="M 539.04,45.84 H 579 v 47.924 h -39.96 z"
         id="path3015" />
    </clipPath>
    <clipPath
       clipPathUnits="userSpaceOnUse"
       id="clipPath3027">
      <path
         inkscape:connector-curvature="0"
         d="M 539.041,45.84 H 579 v 47.924 h -39.959 z"
         id="path3029" />
    </clipPath>
    <clipPath
       id="clipPath8695">
      <path
         id="path8697"
         d="m -33.024,-84.5 v 42.915 H -14.74 V -84.5 Z"
         inkscape:connector-curvature="0" />
    </clipPath>
  </defs>
  <sodipodi:namedview
     id="base"
     pagecolor="#ffffff"
     bordercolor="#666666"
     borderopacity="1.0"
     inkscape:pageopacity="0.0"
     inkscape:pageshadow="2"
     inkscape:zoom="4"
     inkscape:cx="83.625"
     inkscape:cy="50.375"
     inkscape:document-units="px"
     inkscape:current-layer="g8"
     showgrid="false"
     inkscape:window-width="2560"
     inkscape:window-height="1367"
     inkscape:window-x="0"
     inkscape:window-y="0"
     inkscape:window-maximized="1"
     inkscape:showpageshadow="2"
     inkscape:pagecheckerboard="0"
     inkscape:deskcolor="#d1d1d1" />
  <metadata
     id="metadata3300">
    <rdf:RDF>
      <cc:Work
         rdf:about="">
        <dc:format>image/svg+xml</dc:format>
        <dc:type
           rdf:resource="http://purl.org/dc/dcmitype/StillImage" />
      </cc:Work>
    </rdf:RDF>
  </metadata>
  <g
     inkscape:label="Layer 1"
     inkscape:groupmode="layer"
     id="layer1"
     transform="translate(0,-773.36218)">
    <g
       id="g3613"
       transform="matrix(0.97277831,0,0,0.97277831,5.682844,741.90593)">
      <g
         id="g6"
         style="stroke-width:0.400521;stroke-miterlimit:10"
         transform="matrix(0.85013793,0,0,0.83216122,-5.8959909,-384.90121)">
        <g
           id="g8"
           style="stroke-width:0.400521"
           transform="matrix(0.01750061,0,0,-0.01750061,-0.01381586,566.83014)">
          <path
             id="path10"
             style="fill:#777777;stroke:none;stroke-width:0.421865"
             d="m 913.00026,3026.3896 c 0,0 -12.92387,30.061 -49.36772,9.9431 -30.30316,-16.8105 -14.54488,-47.851 -14.54488,-47.851 L 1418.5901,1784.2129 h 138.1495 L 912.99078,3026.3896"
             inkscape:connector-curvature="0" />
          <path
             id="path12"
             style="fill:#777777;stroke:none;stroke-width:0.421865"
             d="m 2529.5901,-93.18323 -430.8379,831.47786 h -185.537 l 432.7864,-915.10837 c 0,0 43.6167,-86.12733 137.2016,-38.51829 93.5532,47.6084 46.4079,122.14986 46.4079,122.14986"
             inkscape:connector-curvature="0" />
          <path
             id="path14"
             style="fill:#f26711;stroke:none;stroke-width:0.421865"
             d="m 4117.5937,3108.9044 c -539.9587,259.1515 -1028.4853,135.3899 -1574.8796,-28.1228 -550.0598,-164.524 -1039.3342,-253.5691 -1588.97257,-29.3131 59.87957,-106.9932 89.85617,-160.4793 149.76727,-267.3883 55.0028,-98.3457 110.0794,-196.6809 165.1033,-294.9844 59.9006,-106.9722 89.8456,-160.4161 149.7568,-267.3672 437.621,-123.6879 800.0371,36.7177 1188.9224,231.134 466.9868,233.3248 888.7979,443.235 1422.3526,321.6116 -450.903,225.7939 -859.6639,169.8325 -1331.1377,41.921 461.594,234.989 896.1815,417.756 1419.0875,292.5092"
             inkscape:connector-curvature="0" />
          <path
             id="path16"
             style="fill:#f26711;stroke:none;stroke-width:0.421865"
             d="m 920.1205,1186.7234 c 0,-90.2038 0,-177.5531 2.7691,-223.39224 -9.68922,-16.5788 -48.53561,-31.9147 -81.81959,-31.9147 -1.39982,0 -47.18635,70.78104 -112.37448,151.28404 l -320.46356,396.806 c -79.04838,99.9046 -126.22631,156.7612 -151.19982,177.5848 -6.92011,-13.8508 -6.92011,-37.4235 -6.92011,-88.7714 v -269.2104 c 0,-112.3861 5.52977,-216.409 20.80248,-253.9062 12.49097,-29.1129 44.3846,-37.4444 80.44925,-44.3435 l 38.84535,-5.58238 c 11.07956,-11.1228 8.32099,-40.27776 0,-48.52506 -74.91,2.707 -130.39733,4.1605 -185.88467,4.1605 -51.32578,0 -102.64229,-1.4535 -155.348937,-4.1605 -8.330999,8.2473 -11.101574,37.40226 0,48.52506 l 23.572426,4.171 c 37.454791,8.33148 63.797791,16.64198 76.278651,45.75488 13.87183,37.4972 19.43321,141.5201 19.43321,253.9062 v 352.4414 c 0,76.2793 0,98.4616 -9.71029,117.8948 -9.72187,23.5937 -30.52435,37.4866 -79.080717,47.1769 l -38.824279,5.5719 c -9.710494,11.1017 -8.330789,44.3962 5.529353,48.5356 65.208563,-2.7069 134.556883,-4.1394 191.456683,-4.1394 47.15475,0 87.39043,1.3903 116.52444,4.1499 13.8929,-62.4285 104.05455,-167.8418 228.89051,-316.3346 L 699.571,1417.0359 c 62.43905,-72.1504 101.2728,-120.665 133.19909,-152.6218 5.53925,13.9034 5.53925,37.5182 5.53925,62.4391 v 191.4987 c 0,112.365 -5.53925,216.43 -20.82355,253.9482 -12.49097,29.0919 -42.99531,37.3813 -80.44926,44.3225 l -37.46553,5.5719 c -11.08061,11.1017 -8.31046,40.2252 0,48.5356 74.93002,-2.7069 129.02806,-4.1394 185.90573,-4.1394 51.30472,0 101.26227,1.3903 155.37077,4.1499 8.3305,-8.3209 11.0796,-37.4444 0,-48.5672 l -24.9734,-4.1394 c -36.05311,-8.3526 -62.42855,-16.642 -74.93005,-45.8076 -15.23058,-37.4445 -20.80143,-141.5095 -20.80143,-253.9167 v -331.6073"
             inkscape:connector-curvature="0" />
          <path
             id="path18"
             style="fill:#f26711;stroke:none;stroke-width:0.421865"
             d="m 1249.7055,1340.7461 c 19.4543,0 41.6155,2.8122 56.9093,12.4709 6.9306,4.2448 9.6692,18.1271 9.6692,31.8936 0,45.8076 -26.3323,76.3531 -73.4986,76.3531 -58.2786,0 -108.2045,-55.4979 -108.2045,-99.873 0,-19.4648 19.4016,-20.8446 63.8083,-20.8446 z m -91.5309,-61.0382 c -31.9042,0 -34.6954,-2.7491 -34.6954,-24.9525 0,-104.0861 66.5995,-205.36 195.596,-205.36 38.8559,0 91.573,8.2894 129.0175,72.1399 15.2622,2.7596 36.0752,-8.3315 36.0752,-31.8726 -56.8882,-117.95796 -159.5313,-158.24624 -242.7729,-158.24624 -187.276,0 -288.52771,131.86134 -288.52771,283.09274 0,174.8251 126.23571,310.8154 299.62941,310.8154 144.2586,0 221.9493,-92.9634 221.9493,-199.8407 0,-26.3533 -6.9306,-45.776 -49.9154,-45.776 h -266.356"
             inkscape:connector-curvature="0" />
          <path
             id="path20"
             style="fill:#f26711;stroke:none;stroke-width:0.421865"
             d="m 1747.975,1430.9182 c -18.0218,0 -19.4122,-1.3482 -19.4122,-31.9147 v -208.0564 c 0,-77.7433 0,-163.7761 97.1029,-163.7761 19.4226,0 41.6049,9.7008 58.2785,20.792 13.8403,-4.1289 22.1718,-19.3806 19.3806,-36.0436 -38.8348,-41.60496 -113.7343,-80.50294 -199.7355,-80.50294 -115.1562,0 -155.3708,66.62056 -155.3708,158.24624 v 309.3408 c 0,29.1762 -1.3904,31.9147 -26.3639,31.9147 h -42.9847 c -15.2728,5.6562 -19.4333,33.3261 -8.3421,43.0691 42.9953,15.2095 81.8406,40.2251 115.1457,62.3969 24.963,18.0218 59.6583,47.1347 102.6537,108.2782 9.6902,5.5087 34.6848,4.0868 41.626,-6.9728 V 1533.614 c 0,-26.3428 1.3903,-27.7331 26.3533,-27.7331 h 123.4772 c 6.9307,-5.5298 11.0806,-13.9034 11.0806,-26.3744 0,-15.2622 -4.1499,-40.1935 -18.0218,-48.5883 h -124.8781"
             inkscape:connector-curvature="0" />
          <path
             id="path22"
             style="fill:#777777;stroke:none;stroke-width:0.421865"
             d="m 2248.9514,1185.3752 c 0,-108.2361 13.8824,-176.2049 122.108,-176.2049 102.6536,0 156.7401,79.0599 156.7401,191.4671 0,120.7176 -69.3697,205.3284 -202.5161,205.3284 -76.3214,0 -76.3214,-1.3693 -76.3214,-56.9093 v -163.6602 z m 0,320.5057 c 0,-36.1068 1.4114,-38.8243 73.5408,-38.8243 119.2956,0 163.6918,76.2582 163.6918,159.5208 0,120.7071 -74.9205,180.376 -170.6436,180.376 -65.1776,0 -66.589,-11.1438 -66.589,-72.1715 z m -191.446,134.6 c 0,140.0981 -2.7702,155.3287 -61.0276,162.312 l -37.4656,5.5824 c -12.4815,6.9412 -15.2622,48.5462 5.5614,49.9365 105.4343,6.9201 206.6977,12.5026 345.4476,12.5026 133.1464,0 221.9704,-15.2938 282.9664,-51.3795 59.6584,-36.0647 95.702,-94.3643 95.702,-176.1734 0,-116.5781 -98.4721,-162.3541 -141.4674,-173.4874 -13.8929,-2.7175 -27.7753,-8.3104 -27.7753,-15.2411 0,-4.15 6.9728,-8.2789 19.4648,-11.1017 109.5843,-23.6042 202.5056,-95.6809 203.9065,-230.2492 1.4008,-127.6693 -74.8995,-202.6109 -162.2699,-233.16686 -87.4337,-30.51378 -191.4461,-34.67429 -276.0779,-34.67429 -49.926,0 -102.6432,5.60351 -142.8894,5.60351 -68.0004,0 -135.9692,-1.443 -215.0187,-4.1921 -11.0806,8.3105 -11.0806,44.36456 0,48.52506 l 40.2357,8.34198 c 62.4075,12.471 70.739,22.1929 70.739,147.071 v 489.7905"
             inkscape:connector-curvature="0" />
          <path
             id="path24"
             style="fill:#777777;stroke:none;stroke-width:0.421865"
             d="m 3045.3547,928.69897 c -127.5956,0 -206.6871,36.07517 -235.8001,52.69607 -26.3533,30.52436 -44.3751,130.41836 -44.3751,224.78266 9.6903,18.0113 41.6155,19.4332 52.7067,4.171 27.7331,-90.1827 120.6544,-217.82038 238.5913,-217.82038 102.6326,0 149.8305,70.74948 149.8305,140.09808 0,112.3756 -105.4133,178.9751 -188.6653,220.5906 -99.8836,50.0102 -208.0881,133.1991 -209.4468,270.6008 0,156.7612 120.6965,265.0289 321.8328,265.0289 45.7655,0 102.6326,-5.5824 158.1516,-22.256 18.0218,-5.5403 30.4927,-8.2789 47.1558,-11.0701 11.049,-30.5243 24.9735,-105.4554 24.9735,-198.4293 -6.9517,-16.6104 -41.6366,-18.0218 -54.1075,-4.2027 -23.5937,70.8127 -83.2732,172.1077 -183.1462,172.1077 -91.5309,0 -141.4568,-59.69 -141.4568,-129.0176 0,-63.8504 56.8144,-122.0868 126.1841,-158.1726 l 91.5942,-48.6093 c 85.9906,-45.776 195.596,-126.2263 195.596,-278.8481 0,-170.6751 -140.1614,-281.64973 -349.6187,-281.64973"
             inkscape:connector-curvature="0" />
          <path
             id="path26"
             style="fill:#777777;stroke:none;stroke-width:0.421865"
             d="m 3699.6692,1202.0593 c 0,-76.353 2.7912,-126.2789 27.7331,-155.434 25.0156,-27.7647 65.2092,-40.2357 115.1562,-40.2357 239.9711,0 321.8329,213.6178 321.8329,402.3569 0,249.7562 -131.7877,398.2069 -382.8921,398.2069 -37.3918,0 -63.8083,-6.9412 -72.1188,-18.085 -8.3315,-11.0701 -9.7113,-37.4234 -9.7113,-80.4082 v -506.4219 z m -198.3557,439.8014 c 0,131.7982 -2.7806,158.1515 -66.5995,165.0927 l -26.3428,2.7491 c -13.8508,6.9412 -13.8508,47.219 2.7912,48.6093 116.5255,6.9201 224.709,12.5026 371.7799,12.5026 113.7448,0 227.4686,-11.186 323.2126,-45.8181 181.7453,-65.1987 281.5867,-228.9222 281.5867,-402.3253 0,-185.9584 -88.7713,-335.8311 -248.2816,-414.8911 -94.3222,-47.20834 -208.1091,-65.1775 -350.9879,-65.1775 -65.1671,0 -134.6,8.34206 -184.5049,8.34206 -66.6101,0 -137.3596,-1.443 -216.3985,-4.1921 -11.0911,8.3105 -11.0911,41.59436 0,48.52506 l 42.9953,6.94118 c 62.418,11.0806 70.7495,20.7919 70.7495,148.4718 v 491.1703"
             inkscape:connector-curvature="0" />
        </g>
      </g>
    </g>
  </g>
  <style
     id="style4"
     type="text/css" />
</svg>
