<svg xmlns="http://www.w3.org/2000/svg" width="64" height="64" viewBox="0 0 4.935 4.935" fill-rule="evenodd" xmlns:v="https://vecta.io/nano"><path d="M2.658 3.635c-.584.023-1.213-.087-1.743-.353l.11-.174c.515.243 1.107.326 1.634.303 0 .019.023-.356.057-.561h-.792c.072-.826.326-1.562.705-2.187H.259v3.608h2.49c-.057-.216-.091-.644-.091-.637z" fill="#d0e9fb"/><path d="M2.897 3.397c.432-.042.811-.155 1.042-.303l.136.174c-.318.186-.732.307-1.179.353a3.16 3.16 0 0 0 .102.652h1.705V.664H2.889c-.387.591-.606 1.251-.69 1.948h.815c-.068.265-.11.527-.118.785zM1.335 1.21h.231v.534h-.231z" fill="#00acec"/><path d="M3.261 1.21h.231v.534h-.231zm-.364 2.187c.432-.042.811-.155 1.042-.303l.136.174c-.318.186-.732.307-1.179.353a2.85 2.85 0 0 0 .315 1.182l-.197.106c-.36-.568-.424-1.334-.299-2.058h-.792c.098-1.126.53-2.081 1.16-2.824l.17.148c-.614.713-.951 1.543-1.054 2.437h.815c-.068.265-.11.527-.118.785z"/><path d="M2.658 3.412v.224c-.584.023-1.213-.087-1.743-.353l.11-.174c.515.243 1.107.326 1.634.303z" fill="#00acec"/></svg>