<?xml version="1.0" encoding="UTF-8" standalone="no"?>
<svg
   width="64.000008"
   height="64.000015"
   viewBox="0 0 6.5536008 6.5534351"
   preserveAspectRatio="xMidYMid"
   version="1.1"
   id="svg2"
   sodipodi:docname="logo-freebsd.svg"
   inkscape:version="1.4.2 (ebf0e940d0, 2025-05-08)"
   xmlns:inkscape="http://www.inkscape.org/namespaces/inkscape"
   xmlns:sodipodi="http://sodipodi.sourceforge.net/DTD/sodipodi-0.dtd"
   xmlns="http://www.w3.org/2000/svg"
   xmlns:svg="http://www.w3.org/2000/svg">
  <defs
     id="defs2" />
  <sodipodi:namedview
     id="namedview2"
     pagecolor="#ffffff"
     bordercolor="#000000"
     borderopacity="0.25"
     inkscape:showpageshadow="2"
     inkscape:pageopacity="0.0"
     inkscape:pagecheckerboard="0"
     inkscape:deskcolor="#d1d1d1"
     inkscape:zoom="1"
     inkscape:cx="138"
     inkscape:cy="38"
     inkscape:window-width="2560"
     inkscape:window-height="1367"
     inkscape:window-x="0"
     inkscape:window-y="0"
     inkscape:window-maximized="1"
     inkscape:current-layer="svg2" />
  <g
     fill="#b5010f"
     id="g2"
     transform="matrix(0.02571861,0,0,0.02612165,-0.02108463,-0.02480991)">
    <path
       d="m 252.723,5.11 c 13.508,13.5 -23.939,72.848 -30.27,79.182 -6.33,6.321 -22.409,0.505 -35.91,-13 -13.508,-13.5 -19.327,-29.583 -12.996,-35.914 6.327,-6.333 65.671,-43.777 79.176,-30.269 M 63.305,19.394 C 42.683,7.694 13.339,-5.322 4.005,4.014 -5.453,13.468 8.039,43.472 19.863,64.131 A 126.812,126.812 0 0 1 63.305,19.394"
       id="path1" />
    <path
       d="m 232.123,79.636 c 1.899,6.44 1.558,11.76 -1.522,14.834 -7.193,7.196 -26.624,-0.464 -44.14,-17.134 a 89.383,89.383 0 0 1 -3.627,-3.428 C 176.5,67.572 171.572,60.828 168.42,54.617 c -6.135,-11.006 -7.67,-20.726 -3.033,-25.364 2.527,-2.524 6.57,-3.212 11.502,-2.325 3.216,-2.034 7.013,-4.3 11.176,-6.621 C 171.136,11.477 151.889,6.49 131.472,6.49 63.753,6.49 8.854,61.38 8.854,129.105 c 0,67.713 54.9,122.61 122.618,122.61 67.72,0 122.616,-54.897 122.616,-122.61 0,-21.87 -5.74,-42.377 -15.767,-60.156 -2.167,3.955 -4.274,7.578 -6.198,10.687"
       id="path2" />
  </g>
</svg>
