<?xml version="1.0" encoding="UTF-8" standalone="no"?>
<svg
   xmlns:dc="http://purl.org/dc/elements/1.1/"
   xmlns:cc="http://creativecommons.org/ns#"
   xmlns:rdf="http://www.w3.org/1999/02/22-rdf-syntax-ns#"
   xmlns:svg="http://www.w3.org/2000/svg"
   xmlns="http://www.w3.org/2000/svg"
   xmlns:xlink="http://www.w3.org/1999/xlink"
   xmlns:sodipodi="http://sodipodi.sourceforge.net/DTD/sodipodi-0.dtd"
   xmlns:inkscape="http://www.inkscape.org/namespaces/inkscape"
   width="44.099529mm"
   height="8.0377407mm"
   viewBox="0 0 44.09953 8.0377409"
   version="1.1"
   id="svg8"
   sodipodi:docname="logo.svg"
   inkscape:version="1.0 (9f2f71dc58, 2020-08-02)">
  <defs
     id="defs2">
    <linearGradient
       inkscape:collect="always"
       id="linearGradient964">
      <stop
         style="stop-color:#aa72ff;stop-opacity:1"
         offset="0"
         id="stop960" />
      <stop
         style="stop-color:#944eff;stop-opacity:0.96862745;"
         offset="0.5"
         id="stop968" />
      <stop
         style="stop-color:#6c23d9;stop-opacity:0.94117647"
         offset="1"
         id="stop962" />
    </linearGradient>
    <radialGradient
       inkscape:collect="always"
       xlink:href="#linearGradient964"
       id="radialGradient966"
       cx="22.170593"
       cy="31.135525"
       fx="22.170593"
       fy="31.135525"
       r="4.0189604"
       gradientUnits="userSpaceOnUse" />
  </defs>
  <sodipodi:namedview
     id="base"
     pagecolor="#ffffff"
     bordercolor="#666666"
     borderopacity="1.0"
     inkscape:pageopacity="0.0"
     inkscape:pageshadow="2"
     inkscape:zoom="1"
     inkscape:cx="39.619371"
     inkscape:cy="25.024452"
     inkscape:document-units="mm"
     inkscape:current-layer="layer1"
     showgrid="false"
     inkscape:window-width="1863"
     inkscape:window-height="1025"
     inkscape:window-x="57"
     inkscape:window-y="27"
     inkscape:window-maximized="1"
     fit-margin-top="0"
     fit-margin-left="0"
     fit-margin-right="0"
     fit-margin-bottom="0"
     inkscape:document-rotation="0" />
  <metadata
     id="metadata5">
    <rdf:RDF>
      <cc:Work
         rdf:about="">
        <dc:format>image/svg+xml</dc:format>
        <dc:type
           rdf:resource="http://purl.org/dc/dcmitype/StillImage" />
        <dc:title />
      </cc:Work>
    </rdf:RDF>
  </metadata>
  <g
     inkscape:label="Layer 1"
     inkscape:groupmode="layer"
     id="layer1"
     transform="translate(-18.151723,-27.116654)">
    <circle
       style="fill:none;fill-opacity:1;stroke:url(#radialGradient966);stroke-width:1.74;stroke-miterlimit:4;stroke-dasharray:none;stroke-opacity:1"
       id="circle1737"
       cx="22.170593"
       cy="31.135525"
       r="3.1489604" />
    <g
       aria-label="listmonk"
       id="text1741"
       style="font-style:normal;font-variant:normal;font-weight:500;font-stretch:normal;font-size:8.70789px;line-height:1.25;font-family:'IBM Plex Sans';-inkscape-font-specification:'IBM Plex Sans, Medium';font-variant-ligatures:normal;font-variant-caps:normal;font-variant-numeric:normal;font-feature-settings:normal;text-align:start;letter-spacing:-0.0529167px;word-spacing:0px;writing-mode:lr-tb;text-anchor:start;fill:#000000;fill-opacity:1;stroke:none;stroke-width:0.0459737">
      <path
         d="m 30.573813,34.701407 q -0.566013,0 -0.879497,-0.322192 -0.313484,-0.3309 -0.313484,-0.931744 v -5.337937 l 1.23652,-0.139326 v 5.442431 q 0,0.304776 0.252529,0.304776 0.139327,0 0.243821,-0.05225 l 0.252529,0.879497 q -0.357023,0.156742 -0.792418,0.156742 z"
         style="font-style:normal;font-variant:normal;font-weight:600;font-stretch:normal;font-size:8.70789px;font-family:'Fira Sans';-inkscape-font-specification:'Fira Sans Semi-Bold';font-variant-ligatures:normal;font-variant-caps:normal;font-variant-numeric:normal;font-feature-settings:normal;text-align:start;writing-mode:lr-tb;text-anchor:start;stroke-width:0.0459737"
         id="path1819" />
      <path
         d="m 33.19313,29.946899 v 4.615181 h -1.23652 v -4.615181 z m -0.626968,-2.377254 q 0.3309,0 0.539889,0.208989 0.217697,0.200282 0.217697,0.513766 0,0.313484 -0.217697,0.522473 -0.208989,0.200282 -0.539889,0.200282 -0.3309,0 -0.539889,-0.200282 -0.20899,-0.208989 -0.20899,-0.522473 0,-0.313484 0.20899,-0.513766 0.208989,-0.208989 0.539889,-0.208989 z"
         style="font-style:normal;font-variant:normal;font-weight:600;font-stretch:normal;font-size:8.70789px;font-family:'Fira Sans';-inkscape-font-specification:'Fira Sans Semi-Bold';font-variant-ligatures:normal;font-variant-caps:normal;font-variant-numeric:normal;font-feature-settings:normal;text-align:start;writing-mode:lr-tb;text-anchor:start;stroke-width:0.0459737"
         id="path1821" />
      <path
         d="m 35.885375,29.807573 q 0.975284,0 1.671915,0.557305 l -0.470226,0.705339 q -0.583428,-0.365732 -1.149441,-0.365732 -0.304776,0 -0.470226,0.113203 -0.16545,0.113202 -0.16545,0.304776 0,0.139326 0.06966,0.235113 0.07837,0.09579 0.278652,0.182866 0.20899,0.08708 0.618261,0.208989 0.731462,0.200282 1.088486,0.539889 0.357023,0.3309 0.357023,0.914329 0,0.461518 -0.269944,0.801125 -0.261237,0.339608 -0.714047,0.522474 -0.452811,0.174158 -1.010115,0.174158 -0.583429,0 -1.062363,-0.174158 -0.478934,-0.182866 -0.818542,-0.49635 l 0.609553,-0.679215 q 0.583428,0.45281 1.23652,0.45281 0.348316,0 0.548597,-0.130618 0.208989,-0.139327 0.208989,-0.37444 0,-0.182865 -0.07837,-0.28736 -0.07837,-0.104495 -0.28736,-0.191574 -0.208989,-0.09579 -0.653092,-0.217697 -0.696631,-0.191573 -1.036239,-0.539889 -0.330899,-0.357023 -0.330899,-0.879497 0,-0.391855 0.226405,-0.705339 0.226405,-0.313484 0.635676,-0.487642 0.417978,-0.182865 0.966575,-0.182865 z"
         style="font-style:normal;font-variant:normal;font-weight:600;font-stretch:normal;font-size:8.70789px;font-family:'Fira Sans';-inkscape-font-specification:'Fira Sans Semi-Bold';font-variant-ligatures:normal;font-variant-caps:normal;font-variant-numeric:normal;font-feature-settings:normal;text-align:start;writing-mode:lr-tb;text-anchor:start;stroke-width:0.0459737"
         id="path1823" />
      <path
         d="m 41.227132,34.344383 q -0.252529,0.174158 -0.574721,0.261237 -0.313484,0.09579 -0.626968,0.09579 -0.714047,-0.0087 -1.079778,-0.409271 -0.365731,-0.400563 -0.365731,-1.175565 V 30.817688 H 37.89201 v -0.870789 h 0.687924 v -1.010115 l 1.23652,-0.148034 v 1.158149 h 1.062362 l -0.12191,0.870789 h -0.940452 v 2.272759 q 0,0.3309 0.113202,0.478934 0.113203,0.148034 0.348316,0.148034 0.235113,0 0.522473,-0.156742 z"
         style="font-style:normal;font-variant:normal;font-weight:600;font-stretch:normal;font-size:8.70789px;font-family:'Fira Sans';-inkscape-font-specification:'Fira Sans Semi-Bold';font-variant-ligatures:normal;font-variant-caps:normal;font-variant-numeric:normal;font-feature-settings:normal;text-align:start;writing-mode:lr-tb;text-anchor:start;stroke-width:0.0459737"
         id="path1825" />
      <path
         d="m 46.719917,29.807573 q 0.548597,0 0.879497,0.374439 0.339607,0.374439 0.339607,1.018823 v 3.361245 h -1.23652 v -3.152256 q 0,-0.679215 -0.45281,-0.679215 -0.243821,0 -0.426687,0.156742 -0.182866,0.156742 -0.374439,0.487642 v 3.187087 h -1.23652 v -3.152256 q 0,-0.679215 -0.452811,-0.679215 -0.243821,0 -0.426686,0.16545 -0.182866,0.156742 -0.365732,0.478934 v 3.187087 h -1.23652 v -4.615181 h 1.07107 l 0.09579,0.574721 q 0.261237,-0.348316 0.583429,-0.531182 0.3309,-0.182865 0.757586,-0.182865 0.391855,0 0.679216,0.200281 0.28736,0.191574 0.417978,0.548597 0.287361,-0.374439 0.61826,-0.557305 0.339608,-0.191573 0.766295,-0.191573 z"
         style="font-style:normal;font-variant:normal;font-weight:600;font-stretch:normal;font-size:8.70789px;font-family:'Fira Sans';-inkscape-font-specification:'Fira Sans Semi-Bold';font-variant-ligatures:normal;font-variant-caps:normal;font-variant-numeric:normal;font-feature-settings:normal;text-align:start;writing-mode:lr-tb;text-anchor:start;stroke-width:0.0459737"
         id="path1827" />
      <path
         d="m 50.868242,29.807573 q 1.036239,0 1.619667,0.653091 0.583429,0.644384 0.583429,1.793826 0,0.731462 -0.269944,1.288767 -0.261237,0.548597 -0.766295,0.853373 -0.496349,0.304777 -1.175565,0.304777 -1.036239,0 -1.628375,-0.644384 -0.583429,-0.653092 -0.583429,-1.802533 0,-0.731463 0.261237,-1.28006 0.269944,-0.557305 0.766294,-0.862081 0.505058,-0.304776 1.192981,-0.304776 z m 0,0.923036 q -0.470226,0 -0.705339,0.374439 -0.226405,0.365732 -0.226405,1.149442 0,0.78371 0.226405,1.158149 0.235113,0.365731 0.696631,0.365731 0.461518,0 0.687923,-0.365731 0.235113,-0.374439 0.235113,-1.158149 0,-0.78371 -0.226405,-1.149442 -0.226405,-0.374439 -0.687923,-0.374439 z"
         style="font-style:normal;font-variant:normal;font-weight:600;font-stretch:normal;font-size:8.70789px;font-family:'Fira Sans';-inkscape-font-specification:'Fira Sans Semi-Bold';font-variant-ligatures:normal;font-variant-caps:normal;font-variant-numeric:normal;font-feature-settings:normal;text-align:start;writing-mode:lr-tb;text-anchor:start;stroke-width:0.0459737"
         id="path1829" />
      <path
         d="m 56.139396,29.807573 q 0.609553,0 0.94916,0.374439 0.339608,0.365731 0.339608,1.018823 v 3.361245 h -1.23652 v -3.152256 q 0,-0.374439 -0.130619,-0.522473 -0.12191,-0.156742 -0.374439,-0.156742 -0.261237,0 -0.478934,0.16545 -0.208989,0.156742 -0.409271,0.478934 v 3.187087 h -1.23652 v -4.615181 h 1.07107 l 0.09579,0.583429 q 0.287361,-0.357024 0.626968,-0.53989 0.348316,-0.182865 0.78371,-0.182865 z"
         style="font-style:normal;font-variant:normal;font-weight:600;font-stretch:normal;font-size:8.70789px;font-family:'Fira Sans';-inkscape-font-specification:'Fira Sans Semi-Bold';font-variant-ligatures:normal;font-variant-caps:normal;font-variant-numeric:normal;font-feature-settings:normal;text-align:start;writing-mode:lr-tb;text-anchor:start;stroke-width:0.0459737"
         id="path1831" />
      <path
         d="m 59.316692,27.970208 v 6.591872 h -1.23652 v -6.452546 z m 2.803941,1.976691 -1.471634,2.028938 1.602252,2.586243 h -1.40197 l -1.489049,-2.525288 1.480341,-2.089893 z"
         style="font-style:normal;font-variant:normal;font-weight:600;font-stretch:normal;font-size:8.70789px;font-family:'Fira Sans';-inkscape-font-specification:'Fira Sans Semi-Bold';font-variant-ligatures:normal;font-variant-caps:normal;font-variant-numeric:normal;font-feature-settings:normal;text-align:start;writing-mode:lr-tb;text-anchor:start;stroke-width:0.0459737"
         id="path1833" />
    </g>
  </g>
</svg>
