<svg width="167" height="33" viewBox="0 0 167 33" fill="none" xmlns="http://www.w3.org/2000/svg">
<circle cx="16.5" cy="16.5" r="16.5" fill="#6E24FF"/>
<path fill-rule="evenodd" clip-rule="evenodd" d="M9.13337 21.9803H24.2601C22.1967 19.6784 21.165 16.4864 21.165 12.4044C21.165 12.013 21.0719 11.6102 20.8857 11.1959C20.6995 10.7815 20.4319 10.3864 20.0828 10.0104C19.7337 9.63442 19.2625 9.32558 18.669 9.08388C18.0756 8.84218 17.4182 8.72133 16.6967 8.72133C15.9753 8.72133 15.3179 8.84218 14.7245 9.08388C14.131 9.32558 13.6598 9.63442 13.3107 10.0104C12.9616 10.3864 12.694 10.7815 12.5078 11.1959C12.3216 11.6102 12.2285 12.013 12.2285 12.4044C12.2285 16.4864 11.1968 19.6784 9.13337 21.9803ZM26.3779 21.9803C26.3779 22.3793 26.2305 22.7245 25.9357 23.0161C25.6409 23.3077 25.2918 23.4535 24.8885 23.4535H19.6756C19.6756 24.2668 19.3847 24.9612 18.8029 25.5367C18.2211 26.1122 17.519 26.3999 16.6967 26.3999C15.8745 26.3999 15.1724 26.1122 14.5906 25.5367C14.0088 24.9612 13.7179 24.2668 13.7179 23.4535H8.50503C8.10165 23.4535 7.75257 23.3077 7.45779 23.0161C7.16301 22.7245 7.01562 22.3793 7.01562 21.9803C7.40349 21.658 7.75645 21.3204 8.0745 20.9674C8.39255 20.6145 8.72223 20.156 9.06355 19.592C9.40488 19.0281 9.69384 18.42 9.93043 17.7678C10.167 17.1156 10.361 16.3253 10.5122 15.3968C10.6635 14.4684 10.7391 13.4709 10.7391 12.4044C10.7391 11.2381 11.1929 10.1543 12.1005 9.15294C13.0081 8.15161 14.1989 7.54353 15.6728 7.32868C15.6107 7.1829 15.5797 7.03327 15.5797 6.87981C15.5797 6.57289 15.6883 6.31201 15.9055 6.09717C16.1227 5.88232 16.3865 5.7749 16.6967 5.7749C17.007 5.7749 17.2708 5.88232 17.488 6.09717C17.7052 6.31201 17.8138 6.57289 17.8138 6.87981C17.8138 7.03327 17.7828 7.1829 17.7207 7.32868C19.1946 7.54353 20.3853 8.15161 21.293 9.15294C22.2006 10.1543 22.6544 11.2381 22.6544 12.4044C22.6544 13.4709 22.73 14.4684 22.8813 15.3968C23.0325 16.3253 23.2265 17.1156 23.4631 17.7678C23.6997 18.42 23.9886 19.0281 24.3299 19.592C24.6713 20.156 25.0009 20.6145 25.319 20.9674C25.637 21.3204 25.99 21.658 26.3779 21.9803ZM14.835 23.2693C14.9591 23.2693 15.0212 23.3307 15.0212 23.4535C15.0212 23.9062 15.186 24.2956 15.5157 24.6217C15.8454 24.9478 16.2391 25.1108 16.6967 25.1108C16.8209 25.1108 16.8829 25.1722 16.8829 25.295C16.8829 25.4178 16.8209 25.4791 16.6967 25.4791C16.1305 25.4791 15.6476 25.2816 15.2481 24.8864C14.8486 24.4912 14.6488 24.0136 14.6488 23.4535C14.6488 23.3307 14.7109 23.2693 14.835 23.2693ZM18.1367 9.99841C18.703 9.99841 19.1859 10.196 19.5854 10.5911C19.9849 10.9863 20.1846 11.4639 20.1846 12.0241C20.1846 12.1468 20.1226 12.2082 19.9984 12.2082C19.8743 12.2082 19.8123 12.1468 19.8123 12.0241C19.8123 11.5714 19.6474 11.182 19.3177 10.8559C18.988 10.5298 18.5944 10.3667 18.1367 10.3667C18.0126 10.3667 17.9505 10.3053 17.9505 10.1826C17.9505 10.0598 18.0126 9.99841 18.1367 9.99841Z" fill="#FFC600"/>
<path d="M53.3796 8.1328L47.5757 19.4173V24.9875H43.4914V19.4173L37.6875 8.1328H42.3211L45.5694 15.1916L48.7938 8.1328H53.3796ZM61.0943 25.1796C59.7886 25.1796 58.6143 24.8994 57.5714 24.3392C56.5284 23.779 55.7084 22.9787 55.1113 21.9383C54.5141 20.8979 54.2156 19.6814 54.2156 18.2888C54.2156 16.9123 54.5181 15.6998 55.1232 14.6514C55.7283 13.603 56.5563 12.7987 57.6072 12.2384C58.6581 11.6782 59.8364 11.3981 61.1421 11.3981C62.4478 11.3981 63.6261 11.6782 64.677 12.2384C65.7279 12.7987 66.5559 13.603 67.161 14.6514C67.7661 15.6998 68.0686 16.9123 68.0686 18.2888C68.0686 19.6654 67.7621 20.8778 67.1491 21.9263C66.536 22.9747 65.7001 23.779 64.6412 24.3392C63.5823 24.8994 62.4 25.1796 61.0943 25.1796ZM61.0943 21.6261C61.8746 21.6261 62.5393 21.338 63.0887 20.7618C63.638 20.1856 63.9127 19.3613 63.9127 18.2888C63.9127 17.2164 63.646 16.3921 63.1126 15.8158C62.5792 15.2396 61.9223 14.9515 61.1421 14.9515C60.3459 14.9515 59.6852 15.2356 59.1597 15.8038C58.6342 16.3721 58.3715 17.2004 58.3715 18.2888C58.3715 19.3613 58.6302 20.1856 59.1477 20.7618C59.6652 21.338 60.3141 21.6261 61.0943 21.6261ZM83.4025 11.5902V24.9875H79.3182V23.1628C78.9042 23.755 78.3429 24.2312 77.6344 24.5913C76.9258 24.9515 76.1416 25.1315 75.2817 25.1315C74.2627 25.1315 73.363 24.9034 72.5828 24.4473C71.8026 23.9911 71.1975 23.3308 70.7676 22.4665C70.3376 21.6021 70.1227 20.5857 70.1227 19.4173V11.5902H74.1831V18.865C74.1831 19.7614 74.4139 20.4577 74.8757 20.9539C75.3375 21.4501 75.9585 21.6982 76.7387 21.6982C77.5349 21.6982 78.1638 21.4501 78.6256 20.9539C79.0873 20.4577 79.3182 19.7614 79.3182 18.865V11.5902H83.4025ZM90.4245 13.8231C90.9022 13.0868 91.4993 12.5065 92.2159 12.0824C92.9324 11.6582 93.7286 11.4461 94.6043 11.4461V15.7918H93.4818C92.4627 15.7918 91.6984 16.0119 91.1888 16.4521C90.6793 16.8923 90.4245 17.6646 90.4245 18.769V24.9875H86.3403V11.5902H90.4245V13.8231ZM104.684 11.4461C106.244 11.4461 107.49 11.9543 108.422 12.9707C109.353 13.9871 109.819 15.3837 109.819 17.1604V24.9875H105.758V17.7126C105.758 16.8162 105.528 16.12 105.066 15.6238C104.604 15.1276 103.983 14.8795 103.203 14.8795C102.423 14.8795 101.802 15.1276 101.34 15.6238C100.878 16.12 100.647 16.8162 100.647 17.7126V24.9875H96.5629V11.5902H100.647V13.3669C101.061 12.7746 101.618 12.3065 102.319 11.9623C103.02 11.6182 103.808 11.4461 104.684 11.4461ZM118.728 25.1796C117.422 25.1796 116.248 24.8994 115.205 24.3392C114.162 23.779 113.342 22.9787 112.745 21.9383C112.148 20.8979 111.849 19.6814 111.849 18.2888C111.849 16.9123 112.151 15.6998 112.757 14.6514C113.362 13.603 114.19 12.7987 115.241 12.2384C116.291 11.6782 117.47 11.3981 118.775 11.3981C120.081 11.3981 121.259 11.6782 122.31 12.2384C123.361 12.7987 124.189 13.603 124.794 14.6514C125.399 15.6998 125.702 16.9123 125.702 18.2888C125.702 19.6654 125.395 20.8778 124.782 21.9263C124.169 22.9747 123.333 23.779 122.275 24.3392C121.216 24.8994 120.033 25.1796 118.728 25.1796ZM118.728 21.6261C119.508 21.6261 120.173 21.338 120.722 20.7618C121.271 20.1856 121.546 19.3613 121.546 18.2888C121.546 17.2164 121.279 16.3921 120.746 15.8158C120.213 15.2396 119.556 14.9515 118.775 14.9515C117.979 14.9515 117.319 15.2356 116.793 15.8038C116.268 16.3721 116.005 17.2004 116.005 18.2888C116.005 19.3613 116.264 20.1856 116.781 20.7618C117.299 21.338 117.947 21.6261 118.728 21.6261ZM135.304 21.5061V24.9875H133.226C131.745 24.9875 130.59 24.6233 129.762 23.895C128.934 23.1668 128.52 21.9783 128.52 20.3296V14.9995H126.896V11.5902H128.52V8.32488H132.605V11.5902H135.28V14.9995H132.605V20.3776C132.605 20.7778 132.7 21.0659 132.891 21.242C133.082 21.4181 133.401 21.5061 133.847 21.5061H135.304ZM139.627 10.1976C138.91 10.1976 138.325 9.98554 137.871 9.56137C137.417 9.1372 137.19 8.61299 137.19 7.98874C137.19 7.34849 137.417 6.81628 137.871 6.39211C138.325 5.96794 138.91 5.75586 139.627 5.75586C140.327 5.75586 140.904 5.96794 141.358 6.39211C141.812 6.81628 142.039 7.34849 142.039 7.98874C142.039 8.61299 141.812 9.1372 141.358 9.56137C140.904 9.98554 140.327 10.1976 139.627 10.1976ZM141.657 11.5902V24.9875H137.573V11.5902H141.657ZM151.306 14.9995H149.109V24.9875H145.025V14.9995H143.544V11.5902H145.025V11.206C145.025 9.55736 145.494 8.30487 146.434 7.44853C147.364 6.60075 148.723 6.17263 150.511 6.16402H150.566C150.868 6.16402 151.091 6.17202 151.235 6.18803V9.66941C150.454 9.62139 149.905 9.73343 149.587 10.0055C149.268 10.2777 149.109 10.7658 149.109 11.4701V11.5902H151.306V14.9995ZM166.831 11.5902L158.472 31.35H154.077L157.134 24.5313L151.712 11.5902H156.274L159.355 19.9695L162.412 11.5902H166.831Z" fill="#473700"/>
</svg>
