<svg width="136" height="30" xmlns="http://www.w3.org/2000/svg" fill="none">

 <g>
  <title>Layer 1</title>
  <g stroke="null" id="svg_3">
   <path stroke="null" id="svg_1" fill="#A1E887" d="m9.85972,3.7922l18.73346,0c-0.03914,0 -0.07801,0.00713 -0.11653,0.02112c-2.77024,0.36121 -4.96501,5.30714 -4.96501,11.35547c0,6.04833 2.19477,10.99427 4.96501,11.35547c0.03853,0.01399 0.0774,0.02112 0.11653,0.02112l-18.73346,0l0,-22.75319zm18.78849,22.74849c-0.01828,0.00311 -0.03663,0.0047 -0.05502,0.0047l0.20857,0l0.01896,0l0,-0.00008c-0.00633,0.00004 -0.01263,0.00008 -0.01896,0.00008c-0.05135,0 -0.10254,-0.00159 -0.15355,-0.0047zm0.17251,-22.74842l0,-0.00008l-0.01896,0l-0.20857,0c0.01839,0 0.03675,0.00159 0.05502,0.0047c0.05101,-0.00311 0.1022,-0.0047 0.15355,-0.0047c0.00633,0 0.01263,0.00004 0.01896,0.00008z" clip-rule="evenodd" fill-rule="evenodd"/>
   <path stroke="null" id="svg_2" fill="#32345B" d="m13.0642,5.6883c-1.17175,0 -1.75761,0 -2.06656,0.2419c-0.26887,0.21054 -0.42897,0.53072 -0.43606,0.87209c-0.00815,0.39234 0.34338,0.86102 1.04642,1.79841l4.471,5.9613c0.05578,0.0744 0.09583,0.15567 0.12071,0.23989c0.02734,0.09242 0.04099,0.13864 0.05229,0.23637c0.00702,0.0606 0.00702,0.20046 0,0.26105c-0.0113,0.09772 -0.02495,0.14391 -0.05229,0.23637c-0.02488,0.08422 -0.06492,0.16549 -0.12071,0.23986l-4.47104,5.96134c-0.70304,0.93739 -1.05453,1.40607 -1.04638,1.79841c0.00709,0.34137 0.16716,0.66155 0.43603,0.87209c0.30899,0.2419 0.89485,0.2419 2.06656,0.2419l16.21165,0c0.41889,0 0.75844,0.33955 0.75844,0.75844l0,4.17142c0,0.41889 -0.33955,0.75844 -0.75844,0.75844l-23.35995,0l0,0c-0.44445,0 -1.00964,-0.1884 -1.36519,-0.45506l0,0l-4.24726,-3.18549c-0.3351,-0.25131 -0.40301,-0.7267 -0.15169,-1.06182l7.03077,-9.37428c0.29371,-0.39166 0.44058,-0.58749 0.4972,-0.80254c0.04998,-0.18984 0.04998,-0.38938 0,-0.57922c-0.05662,-0.21509 -0.20349,-0.41088 -0.4972,-0.80254l-7.03077,-9.37432c-0.25133,-0.33508 -0.18341,-0.81047 0.15169,-1.06181l4.24726,-3.18545l0,0c0.35556,-0.26668 0.92075,-0.45506 1.36519,-0.45506l0,0l23.35995,0c0.41889,0 0.75844,0.33957 0.75844,0.75844l0,4.17142c0,0.41889 -0.33955,0.75844 -0.75844,0.75844l-16.21161,0z" clip-rule="evenodd" fill-rule="evenodd"/>
  </g>
  <text font-weight="bold" transform="matrix(0.925167 0 0 0.925167 82.549 10.438)" stroke="null" xml:space="preserve" text-anchor="start" font-family="Noto Sans JP" font-size="24" stroke-width="0" id="svg_4" y="14.34223" x="-53" fill="#000000">SReading</text>
 </g>
</svg>