<svg
            class="svglogo-loading"
            width="50"
            height="50"
            viewBox="0 0 793 800"
            fill="none"
            xmlns="http://www.w3.org/2000/svg"
          >
            <path
              id="logo1"
              fill-rule="evenodd"
              clip-rule="evenodd"
              d="M260 100H754C752.968 100 751.943 100.188 750.927 100.557C677.876 110.082 620 240.506 620 400C620 559.494 677.876 689.918 750.927 699.443C751.943 699.812 752.968 700 754 700H260V100ZM755.451 699.876C754.969 699.958 754.485 700 754 700H759.5H760V699.998C759.833 699.999 759.667 700 759.5 700C758.146 700 756.796 699.958 755.451 699.876ZM760 100.002V100H759.5H754C754.485 100 754.969 100.042 755.451 100.124C756.796 100.042 758.146 100 759.5 100C759.667 100 759.833 100.001 760 100.002Z"
              fill="#A1E887"
            />
            <path
              id="logo"
              fill-rule="evenodd"
              clip-rule="evenodd"
              d="M344.502 150C313.603 150 298.154 150 290.007 156.379C282.917 161.931 278.695 170.374 278.508 179.376C278.293 189.722 287.563 202.081 306.102 226.8L424.002 383.999C425.473 385.961 426.529 388.104 427.185 390.325C427.906 392.762 428.266 393.981 428.564 396.558C428.749 398.156 428.749 401.844 428.564 403.442C428.266 406.019 427.906 407.237 427.185 409.675C426.529 411.896 425.473 414.039 424.002 416L306.101 573.2C287.562 597.919 278.293 610.278 278.508 620.624C278.695 629.626 282.916 638.069 290.006 643.621C298.154 650 313.603 650 344.501 650H772.001C783.047 650 792.001 658.954 792.001 670V780C792.001 791.046 783.047 800 772.001 800H156.001V800C144.281 800 129.377 795.032 120.001 788V788L8.00115 703.999C-0.835396 697.372 -2.62623 684.836 4.0012 675.999L189.402 428.8C197.147 418.472 201.02 413.308 202.513 407.637C203.831 402.631 203.831 397.369 202.513 392.363C201.02 386.691 197.147 381.528 189.402 371.2L4.00122 124C-2.62622 115.164 -0.835382 102.628 8.00116 96.0002L120.001 12V12C129.377 4.96774 144.281 0 156.001 0V0H772.001C783.047 0 792.001 8.95431 792.001 20V130C792.001 141.046 783.047 150 772.001 150H344.502Z"
              fill="#32345B"
            />
          </svg>